<?xml version="1.0" encoding="UTF-8" standalone="no"?>
<svg
   xmlns:dc="http://purl.org/dc/elements/1.1/"
   xmlns:cc="http://creativecommons.org/ns#"
   xmlns:rdf="http://www.w3.org/1999/02/22-rdf-syntax-ns#"
   xmlns:svg="http://www.w3.org/2000/svg"
   xmlns="http://www.w3.org/2000/svg"
   id="svg493"
   version="1.1"
   viewBox="0 0 105.83333 20.902084"
   height="79"
   width="400">
  <defs
     id="defs487">
    <clipPath
       clipPathUnits="userSpaceOnUse"
       id="clipPath511">
      <path
         d="M 0,566.929 H 566.929 V 0 H 0 Z"
         id="path509" />
    </clipPath>
  </defs>
  <metadata
     id="metadata490">
    <rdf:RDF>
      <cc:Work
         rdf:about="">
        <dc:format>image/svg+xml</dc:format>
        <dc:type
           rdf:resource="http://purl.org/dc/dcmitype/StillImage" />
        <dc:title></dc:title>
      </cc:Work>
    </rdf:RDF>
  </metadata>
  <g
     transform="translate(0,-276.09791)"
     id="layer1">
    <g
       id="g503"
       transform="matrix(0.35277777,0,0,-0.35277777,4.7411768,243.97094)">
      <g
         transform="matrix(0.96823826,0,0,0.96823826,-140.89835,-382.02247)"
         id="g505">
        <g
           id="g507"
           clip-path="url(#clipPath511)">
          <g
             id="g513"
             transform="translate(223.6699,288.0986)">
            <path
               d="m 0,0 v -3.966 c 2.405,3.575 4.615,4.811 8.516,4.811 4.16,0 6.695,-1.625 8.125,-5.266 2.47,3.771 5.07,5.266 9.49,5.266 3.315,0 6.176,-1.17 7.735,-3.25 1.43,-1.755 2.015,-4.03 2.015,-7.671 v -21.32 h -5.98 v 20.866 c 0,4.095 -1.69,6.045 -5.2,6.045 -4.095,0 -6.63,-2.99 -6.63,-7.801 v -19.11 h -5.98 v 21.386 c 0,3.575 -1.82,5.525 -5.2,5.525 C 2.86,-4.485 0.26,-7.41 0.26,-11.96 V -31.396 H -5.72 V 0 Z"
               style="fill:#231916;fill-opacity:1;fill-rule:nonzero;stroke:none"
               id="path515" />
          </g>
          <g
             id="g517"
             transform="translate(288.8652,256.7026)">
            <path
               d="m 0,0 v 3.575 c -3.12,-3.315 -5.655,-4.42 -9.945,-4.42 -3.705,0 -6.761,1.235 -8.516,3.445 -1.495,1.95 -2.08,4.16 -2.08,7.8 v 20.996 h 5.98 V 10.855 c 0,-4.29 1.951,-6.37 6.045,-6.37 5.135,0 8.255,2.991 8.255,7.866 V 31.396 H 5.72 V 0 Z"
               style="fill:#231916;fill-opacity:1;fill-rule:nonzero;stroke:none"
               id="path519" />
          </g>
          <g
             id="g521"
             transform="translate(321.4297,278.478)">
            <path
               d="m 0,0 c -0.846,3.9 -2.99,5.525 -7.151,5.525 -3.575,0 -5.98,-1.495 -5.98,-3.705 0,-1.559 1.105,-2.599 3.64,-3.25 l 7.28,-1.884 c 6.565,-1.691 9.296,-4.42 9.296,-9.231 0,-6.176 -5.07,-10.075 -13.065,-10.075 -8.516,0 -13.586,4.16 -14.237,11.635 h 5.916 c 0.324,-4.161 3.445,-6.63 8.45,-6.63 4.29,0 7.085,1.885 7.085,4.81 0,2.08 -1.365,3.185 -5.005,4.16 l -6.24,1.56 c -3.315,0.845 -5.33,1.755 -6.631,2.925 -1.429,1.235 -2.339,3.315 -2.339,5.395 0,5.395 5.004,9.23 12.09,9.23 C -2.405,10.465 1.3,8.97 3.51,6.305 4.875,4.615 5.46,2.926 5.72,0 Z"
               style="fill:#231916;fill-opacity:1;fill-rule:nonzero;stroke:none"
               id="path523" />
          </g>
          <g
             id="g525"
             transform="translate(354.5137,272.8237)">
            <path
               d="m 0,0 c -1.105,-0.455 -2.146,-0.78 -3.705,-1.171 l -6.11,-1.43 c -3.64,-0.844 -5.265,-2.339 -5.265,-4.81 0,-2.86 2.34,-4.81 5.85,-4.81 5.07,0 9.23,3.705 9.23,8.191 z m -19.631,4.875 c 0.26,3.705 0.976,5.915 2.535,7.669 2.016,2.276 5.785,3.576 10.205,3.576 C 0.91,16.12 5.33,12.415 5.33,5.915 V -8.841 c 0,-2.47 0.325,-2.99 1.691,-2.99 0.519,0 0.844,0.065 1.559,0.325 v -4.615 c -1.43,-0.325 -2.665,-0.455 -3.9,-0.455 -2.86,0 -4.16,1.235 -4.68,4.225 -3.186,-3.185 -6.63,-4.615 -10.855,-4.615 -6.111,0 -10.271,3.77 -10.271,9.295 0,5.07 3.12,8.191 9.49,9.49 l 6.956,1.366 c 3.77,0.714 4.55,1.299 4.55,3.25 0,3.055 -2.665,4.94 -6.891,4.94 -3.054,0 -5.459,-0.975 -6.304,-2.665 -0.455,-0.845 -0.585,-1.561 -0.716,-3.835 z"
               style="fill:#231916;fill-opacity:1;fill-rule:nonzero;stroke:none"
               id="path527" />
          </g>
          <g
             id="g529"
             transform="translate(386.9482,278.478)">
            <path
               d="m 0,0 c -0.845,3.9 -2.99,5.525 -7.15,5.525 -3.576,0 -5.981,-1.495 -5.981,-3.705 0,-1.559 1.106,-2.599 3.641,-3.25 l 7.28,-1.884 c 6.565,-1.691 9.295,-4.42 9.295,-9.231 0,-6.176 -5.07,-10.075 -13.065,-10.075 -8.515,0 -13.585,4.16 -14.236,11.635 h 5.915 c 0.325,-4.161 3.446,-6.63 8.45,-6.63 4.291,0 7.086,1.885 7.086,4.81 0,2.08 -1.365,3.185 -5.006,4.16 l -6.24,1.56 c -3.314,0.845 -5.33,1.755 -6.63,2.925 -1.429,1.235 -2.339,3.315 -2.339,5.395 0,5.395 5.004,9.23 12.089,9.23 C -2.405,10.465 1.3,8.97 3.51,6.305 4.875,4.615 5.46,2.926 5.721,0 Z"
               style="fill:#231916;fill-opacity:1;fill-rule:nonzero;stroke:none"
               id="path531" />
          </g>
          <g
             id="g533"
             transform="translate(406.4473,285.2382)">
            <path
               d="m 0,0 c 3.056,2.665 5.591,3.705 9.36,3.705 3.836,0 6.956,-1.3 8.841,-3.64 1.495,-1.82 2.08,-4.029 2.08,-7.605 v -20.996 h -5.98 v 20.021 c 0,2.665 -0.325,4.03 -1.3,5.07 -1.04,1.17 -2.73,1.82 -4.811,1.82 C 2.99,-1.625 0,-4.745 0,-10.01 V -28.536 H -5.979 V 14.82 H 0 Z"
               style="fill:#231916;fill-opacity:1;fill-rule:nonzero;stroke:none"
               id="path535" />
          </g>
          <path
             d="m 441.481,256.703 h -5.979 v 31.396 h 5.979 z m 0,36.4 h -5.979 v 6.955 h 5.979 z"
             style="fill:#231916;fill-opacity:1;fill-rule:nonzero;stroke:none"
             id="path537" />
          <g
             id="g539"
             transform="translate(134.7729,243.4496)">
            <path
               d="m 0,0 c 3.451,-1.891 7.328,-2.693 11.165,-3.606 0.048,-0.011 0.091,-0.03 0.137,-0.046 0.908,-0.103 1.806,-0.185 2.679,-0.249 1.883,-0.138 3.819,-0.232 5.765,-0.244 V 42.281 H -3.133 V 2.247 C -2.728,1.952 -2.346,1.629 -1.974,1.291 -1.319,0.856 -0.663,0.423 0,0"
               style="fill:#231916;fill-opacity:1;fill-rule:nonzero;stroke:none"
               id="path541" />
          </g>
          <g
             id="g543"
             transform="translate(197.9209,250.81)">
            <path
               d="M 0,0 C 4.434,-1.236 8.662,-3.292 13.285,-3.071 V 34.92 H -9.594 V 0.363 C -6.611,1.418 -3.102,0.865 0,0"
               style="fill:#231916;fill-opacity:1;fill-rule:nonzero;stroke:none"
               id="path545" />
          </g>
          <g
             id="g547"
             transform="translate(182.8389,248.8901)">
            <path
               d="M 0,0 C 0.008,0.005 0.016,0.011 0.023,0.017 V 36.84 H -22.855 V -9.421 c 1.528,0.119 3.041,0.309 4.515,0.588 5.372,1.021 9.864,4.345 14.55,6.949 1.181,0.656 2.401,1.27 3.651,1.81 C -0.093,-0.05 -0.047,-0.024 0,0"
               style="fill:#231916;fill-opacity:1;fill-rule:nonzero;stroke:none"
               id="path549" />
          </g>
          <path
             d="M 154.519,281.434 H 131.64 v 13.692 h 22.879 z"
             style="fill:#231916;fill-opacity:1;fill-rule:nonzero;stroke:none"
             id="path551" />
          <path
             d="m 182.862,281.434 h -22.879 v 13.692 h 22.879 z"
             style="fill:#231916;fill-opacity:1;fill-rule:nonzero;stroke:none"
             id="path553" />
          <path
             d="m 211.206,281.434 h -22.879 v 13.692 h 22.879 z"
             style="fill:#231916;fill-opacity:1;fill-rule:nonzero;stroke:none"
             id="path555" />
          <g
             id="g557"
             transform="translate(132.7373,246.5248)">
            <path
               d="m 0,0 c 0,-0.273 0.185,-0.479 0.431,-0.479 0.242,0 0.43,0.206 0.43,0.471 0,0.281 -0.181,0.483 -0.434,0.483 C 0.178,0.475 0,0.276 0,0 M 0.841,0.967 C 0.783,1.213 0.66,1.332 0.461,1.332 c -0.311,0 -0.502,-0.307 -0.536,-0.861 0.178,0.205 0.321,0.277 0.543,0.277 0.41,0 0.701,-0.305 0.701,-0.738 0,-0.445 -0.301,-0.762 -0.721,-0.762 -0.506,0 -0.817,0.43 -0.817,1.124 0,0.759 0.318,1.224 0.837,1.224 0.366,0 0.615,-0.237 0.67,-0.629 z"
               style="fill:#ffffff;fill-opacity:1;fill-rule:nonzero;stroke:none"
               id="path559" />
          </g>
          <g
             id="g561"
             transform="translate(152.9233,241.312)">
            <path
               d="m 0,0 c 0.027,-0.004 0.048,-0.004 0.062,-0.004 0.273,0 0.458,0.148 0.458,0.366 0,0.202 -0.158,0.345 -0.376,0.345 -0.257,0 -0.411,-0.17 -0.407,-0.457 h -0.298 c 0,0.454 0.277,0.741 0.718,0.741 0.393,0 0.68,-0.26 0.68,-0.615 0,-0.222 -0.102,-0.372 -0.328,-0.492 0.267,-0.13 0.393,-0.312 0.393,-0.564 0,-0.393 -0.318,-0.677 -0.752,-0.677 -0.471,0 -0.799,0.325 -0.803,0.793 h 0.301 c 0.014,-0.307 0.212,-0.509 0.496,-0.509 0.256,0 0.44,0.167 0.44,0.393 0,0.249 -0.208,0.42 -0.512,0.42 L 0,-0.26 Z"
               style="fill:#ffffff;fill-opacity:1;fill-rule:nonzero;stroke:none"
               id="path563" />
          </g>
          <g
             id="g565"
             transform="translate(168.395,243.5102)">
            <path
               d="m 0,0 v 0.096 l 0.003,0.082 c 0,0.034 0,0.041 0.007,0.143 C -0.082,0.178 -0.12,0.12 -0.171,0.048 L -0.69,-0.694 H 0 Z m -0.978,-0.95 v 0.307 l 1.016,1.429 h 0.263 v -1.48 h 0.28 V -0.95 H 0.301 V -1.47 H 0 v 0.52 z"
               style="fill:#ffffff;fill-opacity:1;fill-rule:nonzero;stroke:none"
               id="path567" />
          </g>
          <g
             id="g569"
             transform="translate(189.875,254.1371)">
            <path
               d="m 0,0 c 0,-0.28 0.181,-0.485 0.434,-0.485 0.25,0 0.427,0.201 0.427,0.474 0,0.278 -0.184,0.483 -0.43,0.483 C 0.188,0.472 0,0.267 0,0 M 0.021,-0.978 C 0.079,-1.224 0.202,-1.34 0.4,-1.34 c 0.311,0 0.502,0.308 0.537,0.859 -0.178,-0.206 -0.322,-0.278 -0.544,-0.278 -0.41,0 -0.701,0.305 -0.701,0.742 0,0.444 0.301,0.762 0.722,0.762 0.505,0 0.816,-0.431 0.816,-1.128 0,-0.759 -0.317,-1.22 -0.837,-1.22 -0.366,0 -0.615,0.233 -0.673,0.625 z"
               style="fill:#ffffff;fill-opacity:1;fill-rule:nonzero;stroke:none"
               id="path571" />
          </g>
          <g
             id="g573"
             transform="translate(209.4243,250.4633)">
            <path
               d="m 0,0 c 0,-0.191 0.15,-0.325 0.369,-0.325 0.212,0 0.366,0.134 0.366,0.322 0,0.194 -0.147,0.328 -0.369,0.328 C 0.15,0.325 0,0.191 0,0 m -0.092,-1.028 c 0,-0.254 0.188,-0.428 0.461,-0.428 0.267,0 0.458,0.174 0.458,0.42 0,0.257 -0.184,0.432 -0.461,0.432 -0.27,0 -0.458,-0.175 -0.458,-0.424 m 1.237,-0.018 c 0,-0.4 -0.332,-0.693 -0.776,-0.693 -0.448,0 -0.779,0.297 -0.779,0.693 0,0.256 0.126,0.451 0.386,0.595 -0.188,0.109 -0.284,0.273 -0.284,0.475 0,0.338 0.284,0.584 0.677,0.584 0.39,0 0.673,-0.246 0.673,-0.584 0,-0.202 -0.095,-0.366 -0.283,-0.475 0.26,-0.144 0.386,-0.339 0.386,-0.595"
               style="fill:#ffffff;fill-opacity:1;fill-rule:nonzero;stroke:none"
               id="path575" />
          </g>
          <g
             id="g577"
             transform="translate(224.1548,241.5541)">
            <path
               d="M 0,0 -1.085,2.802 C -1.211,3.159 -1.316,3.467 -1.401,3.768 -1.38,3.418 -1.366,3.04 -1.366,2.745 V 0 h -0.63 v 4.672 h 0.819 l 1.163,-2.991 c 0.147,-0.407 0.168,-0.455 0.28,-0.827 0.14,0.42 0.196,0.575 0.28,0.813 L 1.702,4.65 H 2.521 V 0 h -0.63 v 2.745 c 0,0.322 0.014,0.659 0.035,1.023 C 1.814,3.39 1.73,3.124 1.583,2.745 L 0.525,0 Z"
               style="fill:#231916;fill-opacity:1;fill-rule:nonzero;stroke:none"
               id="path579" />
          </g>
          <g
             id="g581"
             transform="translate(229.9092,241.5541)">
            <path
               d="m 0,0 v 0.385 c -0.336,-0.357 -0.609,-0.476 -1.072,-0.476 -0.399,0 -0.728,0.133 -0.917,0.371 -0.161,0.21 -0.224,0.449 -0.224,0.841 v 2.262 h 0.644 V 1.17 c 0,-0.463 0.21,-0.687 0.652,-0.687 0.553,0 0.889,0.323 0.889,0.848 V 3.383 H 0.616 V 0 Z"
               style="fill:#231916;fill-opacity:1;fill-rule:nonzero;stroke:none"
               id="path583" />
          </g>
          <g
             id="g585"
             transform="translate(233.416,243.9008)">
            <path
               d="m 0,0 c -0.091,0.42 -0.322,0.595 -0.771,0.595 -0.385,0 -0.644,-0.161 -0.644,-0.4 0,-0.168 0.119,-0.279 0.392,-0.349 l 0.785,-0.203 c 0.707,-0.183 1.001,-0.477 1.001,-0.996 0,-0.665 -0.546,-1.085 -1.408,-1.085 -0.917,0 -1.463,0.449 -1.533,1.254 h 0.637 c 0.035,-0.448 0.371,-0.714 0.911,-0.714 0.462,0 0.763,0.203 0.763,0.518 0,0.224 -0.147,0.343 -0.539,0.448 l -0.673,0.168 c -0.357,0.091 -0.574,0.189 -0.714,0.316 -0.154,0.133 -0.252,0.356 -0.252,0.581 0,0.581 0.539,0.994 1.302,0.994 0.484,0 0.883,-0.161 1.121,-0.448 C 0.525,0.497 0.588,0.314 0.616,0 Z"
               style="fill:#231916;fill-opacity:1;fill-rule:nonzero;stroke:none"
               id="path587" />
          </g>
          <g
             id="g589"
             transform="translate(236.979,243.2914)">
            <path
               d="M 0,0 C -0.119,-0.05 -0.231,-0.084 -0.399,-0.126 L -1.058,-0.28 c -0.392,-0.091 -0.567,-0.252 -0.567,-0.519 0,-0.308 0.252,-0.518 0.63,-0.518 0.547,0 0.995,0.399 0.995,0.882 z m -2.115,0.525 c 0.028,0.399 0.105,0.637 0.273,0.827 0.217,0.245 0.623,0.384 1.099,0.384 0.841,0 1.317,-0.399 1.317,-1.099 v -1.59 c 0,-0.266 0.035,-0.322 0.182,-0.322 0.056,0 0.091,0.007 0.168,0.035 V -1.737 C 0.77,-1.772 0.637,-1.786 0.504,-1.786 c -0.308,0 -0.448,0.133 -0.504,0.455 -0.343,-0.343 -0.715,-0.497 -1.17,-0.497 -0.658,0 -1.106,0.406 -1.106,1.001 0,0.547 0.336,0.883 1.022,1.022 l 0.75,0.148 c 0.406,0.077 0.49,0.139 0.49,0.35 0,0.329 -0.287,0.533 -0.743,0.533 -0.329,0 -0.588,-0.106 -0.679,-0.288 C -1.485,0.847 -1.499,0.771 -1.513,0.525 Z"
               style="fill:#231916;fill-opacity:1;fill-rule:nonzero;stroke:none"
               id="path591" />
          </g>
          <g
             id="g593"
             transform="translate(240.4717,243.9008)">
            <path
               d="m 0,0 c -0.091,0.42 -0.322,0.595 -0.771,0.595 -0.385,0 -0.644,-0.161 -0.644,-0.4 0,-0.168 0.119,-0.279 0.392,-0.349 l 0.785,-0.203 c 0.707,-0.183 1.001,-0.477 1.001,-0.996 0,-0.665 -0.546,-1.085 -1.408,-1.085 -0.917,0 -1.463,0.449 -1.533,1.254 h 0.637 c 0.035,-0.448 0.371,-0.714 0.911,-0.714 0.462,0 0.763,0.203 0.763,0.518 0,0.224 -0.147,0.343 -0.539,0.448 l -0.673,0.168 c -0.357,0.091 -0.574,0.189 -0.714,0.316 -0.154,0.133 -0.252,0.356 -0.252,0.581 0,0.581 0.539,0.994 1.302,0.994 0.484,0 0.883,-0.161 1.121,-0.448 C 0.525,0.497 0.588,0.314 0.616,0 Z"
               style="fill:#231916;fill-opacity:1;fill-rule:nonzero;stroke:none"
               id="path595" />
          </g>
          <g
             id="g597"
             transform="translate(242.5708,244.6284)">
            <path
               d="m 0,0 c 0.329,0.287 0.602,0.399 1.008,0.399 0.413,0 0.75,-0.139 0.953,-0.391 0.161,-0.196 0.224,-0.435 0.224,-0.82 V -3.074 H 1.541 v 2.157 C 1.541,-0.63 1.506,-0.482 1.4,-0.371 1.289,-0.245 1.106,-0.175 0.882,-0.175 0.322,-0.175 0,-0.511 0,-1.078 V -3.074 H -0.645 V 1.598 H 0 Z"
               style="fill:#231916;fill-opacity:1;fill-rule:nonzero;stroke:none"
               id="path599" />
          </g>
          <path
             d="m 246.344,241.554 h -0.645 v 3.383 h 0.645 z m 0,3.922 h -0.645 v 0.75 h 0.645 z"
             style="fill:#231916;fill-opacity:1;fill-rule:nonzero;stroke:none"
             id="path601" />
          <g
             id="g603"
             transform="translate(250.1309,243.6977)">
            <path
               d="M 0,0 V -2.144 H -0.666 V 2.528 H 0 V 0.581 H 2.346 V 2.528 H 3.012 V -2.144 H 2.346 V 0 Z"
               style="fill:#231916;fill-opacity:1;fill-rule:nonzero;stroke:none"
               id="path605" />
          </g>
          <path
             d="m 254.8,241.554 h -0.645 v 3.383 h 0.645 z m 0,3.922 h -0.645 v 0.75 h 0.645 z"
             style="fill:#231916;fill-opacity:1;fill-rule:nonzero;stroke:none"
             id="path607" />
          <g
             id="g609"
             transform="translate(256.2207,243.3471)">
            <path
               d="m 0,0 c 0,-0.693 0.343,-1.121 0.91,-1.121 0.554,0 0.904,0.428 0.904,1.107 0,0.707 -0.336,1.135 -0.911,1.135 C 0.343,1.121 0,0.693 0,0 m 2.416,1.59 v -3.25 c 0,-0.448 -0.105,-0.742 -0.343,-0.939 -0.266,-0.23 -0.679,-0.357 -1.184,-0.357 -0.497,0 -0.889,0.134 -1.127,0.386 -0.147,0.154 -0.218,0.322 -0.245,0.623 h 0.616 c 0.035,-0.329 0.294,-0.497 0.777,-0.497 0.61,0 0.89,0.258 0.89,0.819 v 0.386 C 1.527,-1.534 1.19,-1.681 0.798,-1.681 c -0.854,0 -1.449,0.679 -1.449,1.653 0,1.008 0.602,1.709 1.463,1.709 0.441,0 0.722,-0.133 1.002,-0.462 L 1.8,1.59 Z"
               style="fill:#231916;fill-opacity:1;fill-rule:nonzero;stroke:none"
               id="path611" />
          </g>
          <g
             id="g613"
             transform="translate(260.2178,244.6284)">
            <path
               d="m 0,0 c 0.329,0.287 0.602,0.399 1.008,0.399 0.413,0 0.75,-0.139 0.953,-0.391 0.161,-0.196 0.224,-0.435 0.224,-0.82 V -3.074 H 1.541 v 2.157 C 1.541,-0.63 1.506,-0.482 1.4,-0.371 1.289,-0.245 1.106,-0.175 0.882,-0.175 0.322,-0.175 0,-0.511 0,-1.078 V -3.074 H -0.645 V 1.598 H 0 Z"
               style="fill:#231916;fill-opacity:1;fill-rule:nonzero;stroke:none"
               id="path615" />
          </g>
          <g
             id="g617"
             transform="translate(268.3179,244.7827)">
            <path
               d="m 0,0 c -0.07,0.645 -0.455,0.96 -1.163,0.96 -0.623,0 -1.022,-0.267 -1.022,-0.673 0,-0.343 0.245,-0.546 0.84,-0.679 l 0.757,-0.169 c 0.553,-0.126 0.833,-0.245 1.057,-0.448 0.245,-0.217 0.379,-0.532 0.379,-0.896 0,-0.882 -0.715,-1.429 -1.849,-1.429 -1.212,0 -1.94,0.617 -2.039,1.737 h 0.694 c 0.07,-0.742 0.56,-1.155 1.366,-1.155 0.672,0 1.148,0.329 1.148,0.798 0,0.35 -0.252,0.582 -0.742,0.7 l -1.051,0.253 c -0.854,0.203 -1.24,0.581 -1.24,1.211 0,0.819 0.68,1.338 1.751,1.338 1.072,0 1.646,-0.497 1.793,-1.548 z"
               style="fill:#231916;fill-opacity:1;fill-rule:nonzero;stroke:none"
               id="path619" />
          </g>
          <g
             id="g621"
             transform="translate(272.3213,243.7885)">
            <path
               d="m 0,0 c -0.098,0.462 -0.392,0.7 -0.854,0.7 -0.617,0 -1.03,-0.49 -1.03,-1.232 0,-0.764 0.406,-1.254 1.03,-1.254 0.504,0 0.805,0.273 0.896,0.819 h 0.609 c -0.09,-0.861 -0.644,-1.358 -1.519,-1.358 -1.009,0 -1.667,0.707 -1.667,1.786 0,1.078 0.665,1.778 1.688,1.778 0.826,0 1.366,-0.455 1.456,-1.239 z"
               style="fill:#231916;fill-opacity:1;fill-rule:nonzero;stroke:none"
               id="path623" />
          </g>
          <g
             id="g625"
             transform="translate(274.3018,244.6284)">
            <path
               d="m 0,0 c 0.329,0.287 0.602,0.399 1.008,0.399 0.413,0 0.75,-0.139 0.953,-0.391 0.161,-0.196 0.224,-0.435 0.224,-0.82 V -3.074 H 1.541 v 2.157 C 1.541,-0.63 1.506,-0.482 1.4,-0.371 1.289,-0.245 1.106,-0.175 0.882,-0.175 0.322,-0.175 0,-0.511 0,-1.078 V -3.074 H -0.645 V 1.598 H 0 Z"
               style="fill:#231916;fill-opacity:1;fill-rule:nonzero;stroke:none"
               id="path627" />
          </g>
          <g
             id="g629"
             transform="translate(277.9136,243.2495)">
            <path
               d="m 0,0 c 0,-0.792 0.357,-1.247 0.98,-1.247 0.61,0 0.974,0.455 0.974,1.226 0,0.812 -0.35,1.26 -0.98,1.26 C 0.357,1.239 0,0.784 0,0 m 2.605,-0.028 c 0,-1.037 -0.665,-1.758 -1.631,-1.758 -0.967,0 -1.625,0.721 -1.625,1.786 0,1.058 0.658,1.778 1.625,1.778 0.987,0 1.631,-0.714 1.631,-1.806"
               style="fill:#231916;fill-opacity:1;fill-rule:nonzero;stroke:none"
               id="path631" />
          </g>
          <g
             id="g633"
             transform="translate(281.7637,243.2495)">
            <path
               d="m 0,0 c 0,-0.792 0.357,-1.247 0.98,-1.247 0.61,0 0.974,0.455 0.974,1.226 0,0.812 -0.35,1.26 -0.98,1.26 C 0.357,1.239 0,0.784 0,0 m 2.605,-0.028 c 0,-1.037 -0.665,-1.758 -1.631,-1.758 -0.967,0 -1.625,0.721 -1.625,1.786 0,1.058 0.658,1.778 1.625,1.778 0.987,0 1.631,-0.714 1.631,-1.806"
               style="fill:#231916;fill-opacity:1;fill-rule:nonzero;stroke:none"
               id="path635" />
          </g>
          <path
             d="m 285.775,241.554 h -0.645 v 4.672 h 0.645 z"
             style="fill:#231916;fill-opacity:1;fill-rule:nonzero;stroke:none"
             id="path637" />
          <g
             id="g639"
             transform="translate(290.9199,243.2914)">
            <path
               d="M 0,0 C -0.118,-0.05 -0.23,-0.084 -0.398,-0.126 L -1.057,-0.28 c -0.392,-0.091 -0.567,-0.252 -0.567,-0.519 0,-0.308 0.252,-0.518 0.63,-0.518 0.547,0 0.994,0.399 0.994,0.882 z m -2.114,0.525 c 0.028,0.399 0.104,0.637 0.272,0.827 0.218,0.245 0.624,0.384 1.1,0.384 0.841,0 1.317,-0.399 1.317,-1.099 v -1.59 c 0,-0.266 0.034,-0.322 0.183,-0.322 0.054,0 0.09,0.007 0.168,0.035 V -1.737 C 0.771,-1.772 0.639,-1.786 0.505,-1.786 c -0.308,0 -0.448,0.133 -0.505,0.455 -0.342,-0.343 -0.714,-0.497 -1.169,-0.497 -0.658,0 -1.106,0.406 -1.106,1.001 0,0.547 0.336,0.883 1.022,1.022 l 0.749,0.148 c 0.406,0.077 0.49,0.139 0.49,0.35 0,0.329 -0.287,0.533 -0.742,0.533 -0.329,0 -0.588,-0.106 -0.68,-0.288 C -1.484,0.847 -1.498,0.771 -1.512,0.525 Z"
               style="fill:#231916;fill-opacity:1;fill-rule:nonzero;stroke:none"
               id="path641" />
          </g>
          <g
             id="g643"
             transform="translate(293.082,244.937)">
            <path
               d="m 0,0 v -0.385 c 0.337,0.357 0.609,0.476 1.072,0.476 0.399,0 0.729,-0.133 0.918,-0.371 0.16,-0.21 0.224,-0.449 0.224,-0.84 V -3.383 H 1.569 v 2.213 c 0,0.463 -0.21,0.687 -0.651,0.687 -0.553,0 -0.889,-0.323 -0.889,-0.848 V -3.383 H -0.615 V 0 Z"
               style="fill:#231916;fill-opacity:1;fill-rule:nonzero;stroke:none"
               id="path645" />
          </g>
          <g
             id="g647"
             transform="translate(296.7148,243.2495)">
            <path
               d="m 0,0 c 0,-0.799 0.352,-1.247 0.961,-1.247 0.615,0 0.965,0.448 0.965,1.226 0,0.812 -0.342,1.26 -0.965,1.26 C 0.352,1.239 0,0.791 0,0 M 2.535,-1.695 H 1.893 v 0.364 C 1.57,-1.653 1.248,-1.786 0.82,-1.786 c -0.904,0 -1.47,0.7 -1.47,1.8 0,1.078 0.574,1.764 1.47,1.764 0.434,0 0.756,-0.139 1.073,-0.455 v 1.654 h 0.642 z"
               style="fill:#231916;fill-opacity:1;fill-rule:nonzero;stroke:none"
               id="path649" />
          </g>
          <g
             id="g651"
             transform="translate(304.6328,246.226)">
            <path
               d="m 0,0 v -3.313 c 0,-0.546 -0.076,-0.827 -0.301,-1.065 -0.238,-0.259 -0.609,-0.399 -1.056,-0.399 -0.631,0 -1.086,0.273 -1.268,0.77 -0.07,0.196 -0.092,0.413 -0.1,0.869 h 0.666 c 0.008,-0.337 0.022,-0.49 0.071,-0.637 0.097,-0.274 0.322,-0.42 0.631,-0.42 0.222,0 0.412,0.084 0.525,0.23 0.125,0.154 0.168,0.337 0.168,0.666 V 0 Z"
               style="fill:#231916;fill-opacity:1;fill-rule:nonzero;stroke:none"
               id="path653" />
          </g>
          <g
             id="g655"
             transform="translate(307.8672,241.5541)">
            <path
               d="m 0,0 v 0.385 c -0.336,-0.357 -0.609,-0.476 -1.07,-0.476 -0.401,0 -0.729,0.133 -0.918,0.371 -0.162,0.21 -0.225,0.449 -0.225,0.841 v 2.262 h 0.645 V 1.17 c 0,-0.463 0.209,-0.687 0.65,-0.687 0.555,0 0.891,0.323 0.891,0.848 V 3.383 H 0.617 V 0 Z"
               style="fill:#231916;fill-opacity:1;fill-rule:nonzero;stroke:none"
               id="path657" />
          </g>
          <g
             id="g659"
             transform="translate(310.043,244.937)">
            <path
               d="m 0,0 v -0.385 c 0.336,0.357 0.609,0.476 1.072,0.476 0.399,0 0.729,-0.133 0.916,-0.371 0.162,-0.21 0.225,-0.449 0.225,-0.84 V -3.383 H 1.568 v 2.213 c 0,0.463 -0.209,0.687 -0.65,0.687 -0.553,0 -0.891,-0.323 -0.891,-0.848 V -3.383 H -0.615 V 0 Z"
               style="fill:#231916;fill-opacity:1;fill-rule:nonzero;stroke:none"
               id="path661" />
          </g>
          <path
             d="m 313.844,241.554 h -0.645 v 3.383 h 0.645 z m 0,3.922 h -0.645 v 0.75 h 0.645 z"
             style="fill:#231916;fill-opacity:1;fill-rule:nonzero;stroke:none"
             id="path663" />
          <g
             id="g665"
             transform="translate(315.2637,243.2495)">
            <path
               d="m 0,0 c 0,-0.792 0.357,-1.247 0.98,-1.247 0.61,0 0.975,0.455 0.975,1.226 0,0.812 -0.35,1.26 -0.98,1.26 C 0.357,1.239 0,0.784 0,0 m 2.605,-0.028 c 0,-1.037 -0.664,-1.758 -1.63,-1.758 -0.967,0 -1.625,0.721 -1.625,1.786 0,1.058 0.658,1.778 1.625,1.778 0.988,0 1.63,-0.714 1.63,-1.806"
               style="fill:#231916;fill-opacity:1;fill-rule:nonzero;stroke:none"
               id="path667" />
          </g>
          <g
             id="g669"
             transform="translate(319.248,244.937)">
            <path
               d="m 0,0 v -0.532 c 0.133,0.196 0.187,0.273 0.279,0.357 0.155,0.161 0.399,0.266 0.602,0.266 0.127,0 0.246,-0.028 0.357,-0.084 v -0.581 c -0.133,0.028 -0.203,0.035 -0.293,0.035 -0.519,0 -0.918,-0.463 -0.918,-1.065 V -3.383 H -0.617 V 0 Z"
               style="fill:#231916;fill-opacity:1;fill-rule:nonzero;stroke:none"
               id="path671" />
          </g>
          <g
             id="g673"
             transform="translate(323.916,243.6977)">
            <path
               d="M 0,0 V -2.144 H -0.666 V 2.528 H 0 V 0.581 H 2.346 V 2.528 H 3.012 V -2.144 H 2.346 V 0 Z"
               style="fill:#231916;fill-opacity:1;fill-rule:nonzero;stroke:none"
               id="path675" />
          </g>
          <path
             d="m 328.584,241.554 h -0.643 v 3.383 h 0.643 z m 0,3.922 h -0.643 v 0.75 h 0.643 z"
             style="fill:#231916;fill-opacity:1;fill-rule:nonzero;stroke:none"
             id="path677" />
          <g
             id="g679"
             transform="translate(330.0059,243.3471)">
            <path
               d="m 0,0 c 0,-0.693 0.344,-1.121 0.911,-1.121 0.553,0 0.903,0.428 0.903,1.107 0,0.707 -0.335,1.135 -0.91,1.135 C 0.344,1.121 0,0.693 0,0 m 2.417,1.59 v -3.25 c 0,-0.448 -0.105,-0.742 -0.344,-0.939 -0.265,-0.23 -0.678,-0.357 -1.183,-0.357 -0.497,0 -0.89,0.134 -1.128,0.386 -0.147,0.154 -0.217,0.322 -0.244,0.623 h 0.616 c 0.034,-0.329 0.294,-0.497 0.777,-0.497 0.61,0 0.89,0.258 0.89,0.819 v 0.386 c -0.274,-0.295 -0.61,-0.442 -1.002,-0.442 -0.855,0 -1.451,0.679 -1.451,1.653 0,1.008 0.603,1.709 1.464,1.709 0.442,0 0.722,-0.133 1.002,-0.462 L 1.801,1.59 Z"
               style="fill:#231916;fill-opacity:1;fill-rule:nonzero;stroke:none"
               id="path681" />
          </g>
          <g
             id="g683"
             transform="translate(334.0029,244.6284)">
            <path
               d="m 0,0 c 0.329,0.287 0.603,0.399 1.009,0.399 0.413,0 0.749,-0.139 0.952,-0.391 0.161,-0.196 0.225,-0.435 0.225,-0.82 V -3.074 H 1.541 v 2.157 c 0,0.287 -0.035,0.435 -0.14,0.546 C 1.289,-0.245 1.106,-0.175 0.883,-0.175 0.322,-0.175 0,-0.511 0,-1.078 V -3.074 H -0.644 V 1.598 H 0 Z"
               style="fill:#231916;fill-opacity:1;fill-rule:nonzero;stroke:none"
               id="path685" />
          </g>
          <g
             id="g687"
             transform="translate(342.1025,244.7827)">
            <path
               d="m 0,0 c -0.07,0.645 -0.455,0.96 -1.163,0.96 -0.623,0 -1.023,-0.267 -1.023,-0.673 0,-0.343 0.246,-0.546 0.841,-0.679 l 0.757,-0.169 c 0.553,-0.126 0.833,-0.245 1.058,-0.448 0.245,-0.217 0.378,-0.532 0.378,-0.896 0,-0.882 -0.715,-1.429 -1.85,-1.429 -1.211,0 -1.939,0.617 -2.038,1.737 h 0.693 c 0.071,-0.742 0.561,-1.155 1.367,-1.155 0.671,0 1.148,0.329 1.148,0.798 0,0.35 -0.252,0.582 -0.742,0.7 l -1.051,0.253 c -0.854,0.203 -1.239,0.581 -1.239,1.211 0,0.819 0.678,1.338 1.751,1.338 1.071,0 1.645,-0.497 1.793,-1.548 z"
               style="fill:#231916;fill-opacity:1;fill-rule:nonzero;stroke:none"
               id="path689" />
          </g>
          <g
             id="g691"
             transform="translate(346.1064,243.7885)">
            <path
               d="m 0,0 c -0.099,0.462 -0.393,0.7 -0.854,0.7 -0.617,0 -1.031,-0.49 -1.031,-1.232 0,-0.764 0.406,-1.254 1.031,-1.254 0.503,0 0.804,0.273 0.896,0.819 h 0.609 c -0.091,-0.861 -0.644,-1.358 -1.52,-1.358 -1.008,0 -1.667,0.707 -1.667,1.786 0,1.078 0.666,1.778 1.688,1.778 0.827,0 1.366,-0.455 1.457,-1.239 z"
               style="fill:#231916;fill-opacity:1;fill-rule:nonzero;stroke:none"
               id="path693" />
          </g>
          <g
             id="g695"
             transform="translate(348.0859,244.6284)">
            <path
               d="m 0,0 c 0.329,0.287 0.603,0.399 1.009,0.399 0.413,0 0.749,-0.139 0.952,-0.391 0.161,-0.196 0.225,-0.435 0.225,-0.82 V -3.074 H 1.541 v 2.157 c 0,0.287 -0.035,0.435 -0.14,0.546 C 1.289,-0.245 1.106,-0.175 0.883,-0.175 0.322,-0.175 0,-0.511 0,-1.078 V -3.074 H -0.644 V 1.598 H 0 Z"
               style="fill:#231916;fill-opacity:1;fill-rule:nonzero;stroke:none"
               id="path697" />
          </g>
          <g
             id="g699"
             transform="translate(351.6973,243.2495)">
            <path
               d="m 0,0 c 0,-0.792 0.357,-1.247 0.98,-1.247 0.61,0 0.974,0.455 0.974,1.226 0,0.812 -0.35,1.26 -0.98,1.26 C 0.357,1.239 0,0.784 0,0 m 2.605,-0.028 c 0,-1.037 -0.665,-1.758 -1.631,-1.758 -0.966,0 -1.625,0.721 -1.625,1.786 0,1.058 0.659,1.778 1.625,1.778 0.987,0 1.631,-0.714 1.631,-1.806"
               style="fill:#231916;fill-opacity:1;fill-rule:nonzero;stroke:none"
               id="path701" />
          </g>
          <g
             id="g703"
             transform="translate(355.5469,243.2495)">
            <path
               d="m 0,0 c 0,-0.792 0.357,-1.247 0.98,-1.247 0.61,0 0.974,0.455 0.974,1.226 0,0.812 -0.35,1.26 -0.98,1.26 C 0.357,1.239 0,0.784 0,0 m 2.605,-0.028 c 0,-1.037 -0.665,-1.758 -1.631,-1.758 -0.966,0 -1.625,0.721 -1.625,1.786 0,1.058 0.659,1.778 1.625,1.778 0.987,0 1.631,-0.714 1.631,-1.806"
               style="fill:#231916;fill-opacity:1;fill-rule:nonzero;stroke:none"
               id="path705" />
          </g>
          <path
             d="m 359.558,241.554 h -0.644 v 4.672 h 0.644 z"
             style="fill:#231916;fill-opacity:1;fill-rule:nonzero;stroke:none"
             id="path707" />
          <g
             id="g709"
             transform="translate(364.2617,245.5043)">
            <path
               d="m 0,0 -0.686,-1.989 h 1.373 z m -0.882,-2.55 -0.476,-1.4 H -2.065 L -0.35,0.722 H 0.364 L 2.088,-3.95 H 1.359 l -0.483,1.4 z"
               style="fill:#231916;fill-opacity:1;fill-rule:nonzero;stroke:none"
               id="path711" />
          </g>
          <g
             id="g713"
             transform="translate(367.5029,244.937)">
            <path
               d="m 0,0 v -0.385 c 0.336,0.357 0.609,0.476 1.071,0.476 0.4,0 0.729,-0.133 0.917,-0.371 0.161,-0.21 0.225,-0.449 0.225,-0.84 V -3.383 H 1.568 v 2.213 c 0,0.463 -0.21,0.687 -0.651,0.687 -0.553,0 -0.89,-0.323 -0.89,-0.848 V -3.383 H -0.616 V 0 Z"
               style="fill:#231916;fill-opacity:1;fill-rule:nonzero;stroke:none"
               id="path715" />
          </g>
          <g
             id="g717"
             transform="translate(371.2754,244.937)">
            <path
               d="m 0,0 v -0.385 c 0.336,0.357 0.609,0.476 1.071,0.476 0.4,0 0.729,-0.133 0.917,-0.371 0.161,-0.21 0.225,-0.449 0.225,-0.84 V -3.383 H 1.568 v 2.213 c 0,0.463 -0.21,0.687 -0.651,0.687 -0.553,0 -0.89,-0.323 -0.89,-0.848 V -3.383 H -0.616 V 0 Z"
               style="fill:#231916;fill-opacity:1;fill-rule:nonzero;stroke:none"
               id="path719" />
          </g>
          <path
             d="m 375.075,241.554 h -0.644 v 3.383 h 0.644 z m 0,3.922 h -0.644 v 0.75 h 0.644 z"
             style="fill:#231916;fill-opacity:1;fill-rule:nonzero;stroke:none"
             id="path721" />
          <g
             id="g723"
             transform="translate(376.7275,241.5541)">
            <path
               d="m 0,0 -1.162,3.383 h 0.685 L 0.098,1.568 C 0.168,1.352 0.28,0.938 0.364,0.623 0.371,0.672 0.386,0.729 0.399,0.764 L 0.462,1.016 C 0.477,1.071 0.588,1.45 0.616,1.555 L 1.19,3.383 H 1.877 L 0.707,0 Z"
               style="fill:#231916;fill-opacity:1;fill-rule:nonzero;stroke:none"
               id="path725" />
          </g>
          <g
             id="g727"
             transform="translate(381.3691,243.5571)">
            <path
               d="M 0,0 C -0.027,0.616 -0.336,0.96 -0.848,0.96 -1.372,0.96 -1.751,0.567 -1.786,0 Z m -1.793,-0.469 c 0.049,-0.693 0.399,-1.086 0.981,-1.086 0.399,0 0.666,0.19 0.819,0.588 h 0.616 c -0.16,-0.707 -0.7,-1.127 -1.449,-1.127 -0.952,0 -1.612,0.729 -1.612,1.786 0,1.058 0.645,1.779 1.59,1.779 0.673,0 1.163,-0.358 1.387,-1.009 0.084,-0.252 0.127,-0.524 0.134,-0.931 z"
               style="fill:#231916;fill-opacity:1;fill-rule:nonzero;stroke:none"
               id="path729" />
          </g>
          <g
             id="g731"
             transform="translate(383.4199,244.937)">
            <path
               d="m 0,0 v -0.532 c 0.133,0.196 0.188,0.273 0.28,0.357 0.154,0.161 0.399,0.266 0.602,0.266 0.126,0 0.245,-0.028 0.357,-0.084 v -0.581 c -0.133,0.028 -0.203,0.035 -0.294,0.035 -0.518,0 -0.918,-0.463 -0.918,-1.065 V -3.383 H -0.616 V 0 Z"
               style="fill:#231916;fill-opacity:1;fill-rule:nonzero;stroke:none"
               id="path733" />
          </g>
          <g
             id="g735"
             transform="translate(387.1855,243.9008)">
            <path
               d="m 0,0 c -0.091,0.42 -0.322,0.595 -0.771,0.595 -0.384,0 -0.643,-0.161 -0.643,-0.4 0,-0.168 0.119,-0.279 0.392,-0.349 l 0.784,-0.203 c 0.708,-0.183 1.002,-0.477 1.002,-0.996 0,-0.665 -0.546,-1.085 -1.409,-1.085 -0.917,0 -1.462,0.449 -1.533,1.254 h 0.637 c 0.035,-0.448 0.372,-0.714 0.911,-0.714 0.462,0 0.764,0.203 0.764,0.518 0,0.224 -0.148,0.343 -0.54,0.448 l -0.672,0.168 c -0.358,0.091 -0.574,0.189 -0.715,0.316 -0.153,0.133 -0.252,0.356 -0.252,0.581 0,0.581 0.539,0.994 1.303,0.994 0.483,0 0.883,-0.161 1.121,-0.448 C 0.525,0.497 0.589,0.314 0.616,0 Z"
               style="fill:#231916;fill-opacity:1;fill-rule:nonzero;stroke:none"
               id="path737" />
          </g>
          <g
             id="g739"
             transform="translate(390.749,243.2914)">
            <path
               d="M 0,0 C -0.119,-0.05 -0.23,-0.084 -0.399,-0.126 L -1.058,-0.28 c -0.391,-0.091 -0.567,-0.252 -0.567,-0.519 0,-0.308 0.253,-0.518 0.631,-0.518 0.546,0 0.994,0.399 0.994,0.882 z m -2.115,0.525 c 0.028,0.399 0.105,0.637 0.273,0.827 0.217,0.245 0.623,0.384 1.1,0.384 0.841,0 1.316,-0.399 1.316,-1.099 v -1.59 c 0,-0.266 0.035,-0.322 0.183,-0.322 0.055,0 0.091,0.007 0.168,0.035 v -0.497 c -0.154,-0.035 -0.287,-0.049 -0.42,-0.049 -0.309,0 -0.448,0.133 -0.505,0.455 -0.343,-0.343 -0.714,-0.497 -1.169,-0.497 -0.659,0 -1.107,0.406 -1.107,1.001 0,0.547 0.337,0.883 1.022,1.022 l 0.75,0.148 c 0.406,0.077 0.49,0.139 0.49,0.35 0,0.329 -0.287,0.533 -0.742,0.533 -0.329,0 -0.589,-0.106 -0.68,-0.288 C -1.484,0.847 -1.499,0.771 -1.513,0.525 Z"
               style="fill:#231916;fill-opacity:1;fill-rule:nonzero;stroke:none"
               id="path741" />
          </g>
          <g
             id="g743"
             transform="translate(392.9121,244.937)">
            <path
               d="m 0,0 v -0.532 c 0.133,0.196 0.188,0.273 0.28,0.357 0.154,0.161 0.399,0.266 0.602,0.266 0.126,0 0.245,-0.028 0.357,-0.084 v -0.581 c -0.133,0.028 -0.203,0.035 -0.294,0.035 -0.518,0 -0.918,-0.463 -0.918,-1.065 V -3.383 H -0.616 V 0 Z"
               style="fill:#231916;fill-opacity:1;fill-rule:nonzero;stroke:none"
               id="path745" />
          </g>
          <g
             id="g747"
             transform="translate(397.5811,244.937)">
            <path
               d="m 0,0 -1.491,-3.789 c -0.19,-0.469 -0.442,-0.665 -0.855,-0.665 -0.168,0 -0.308,0.027 -0.518,0.104 v 0.526 c 0.203,-0.077 0.28,-0.091 0.406,-0.091 0.231,0 0.378,0.112 0.47,0.351 L -1.897,-3.299 -3.298,0 h 0.694 l 0.749,-1.933 c 0.112,-0.295 0.132,-0.343 0.251,-0.714 0.078,0.251 0.19,0.602 0.232,0.714 L -0.672,0 Z"
               style="fill:#231916;fill-opacity:1;fill-rule:nonzero;stroke:none"
               id="path749" />
          </g>
          <g
             id="g751"
             transform="translate(403.4121,245.644)">
            <path
               d="m 0,0 h -2.486 v -1.4 h 2.087 V -1.961 H -2.486 V -4.09 H -3.151 V 0.582 H 0 Z"
               style="fill:#231916;fill-opacity:1;fill-rule:nonzero;stroke:none"
               id="path753" />
          </g>
          <g
             id="g755"
             transform="translate(406.2881,243.5571)">
            <path
               d="M 0,0 C -0.027,0.616 -0.336,0.96 -0.848,0.96 -1.372,0.96 -1.751,0.567 -1.786,0 Z m -1.793,-0.469 c 0.049,-0.693 0.399,-1.086 0.981,-1.086 0.399,0 0.666,0.19 0.819,0.588 h 0.617 c -0.161,-0.707 -0.701,-1.127 -1.45,-1.127 -0.952,0 -1.612,0.729 -1.612,1.786 0,1.058 0.645,1.779 1.59,1.779 0.673,0 1.163,-0.358 1.387,-1.009 0.085,-0.252 0.127,-0.524 0.134,-0.931 z"
               style="fill:#231916;fill-opacity:1;fill-rule:nonzero;stroke:none"
               id="path757" />
          </g>
          <g
             id="g759"
             transform="translate(409.6689,243.9008)">
            <path
               d="m 0,0 c -0.091,0.42 -0.322,0.595 -0.771,0.595 -0.384,0 -0.643,-0.161 -0.643,-0.4 0,-0.168 0.118,-0.279 0.392,-0.349 l 0.784,-0.203 c 0.708,-0.183 1.002,-0.477 1.002,-0.996 0,-0.665 -0.546,-1.085 -1.409,-1.085 -0.917,0 -1.462,0.449 -1.533,1.254 h 0.637 c 0.035,-0.448 0.372,-0.714 0.911,-0.714 0.462,0 0.764,0.203 0.764,0.518 0,0.224 -0.148,0.343 -0.54,0.448 l -0.672,0.168 c -0.358,0.091 -0.574,0.189 -0.715,0.316 -0.153,0.133 -0.252,0.356 -0.252,0.581 0,0.581 0.539,0.994 1.303,0.994 0.483,0 0.883,-0.161 1.121,-0.448 C 0.525,0.497 0.589,0.314 0.616,0 Z"
               style="fill:#231916;fill-opacity:1;fill-rule:nonzero;stroke:none"
               id="path761" />
          </g>
          <g
             id="g763"
             transform="translate(412.4697,244.4252)">
            <path
               d="m 0,0 h -0.609 v -2.122 c 0,-0.195 0.09,-0.308 0.252,-0.308 0.09,0 0.181,0.021 0.357,0.091 v -0.525 c -0.28,-0.063 -0.386,-0.077 -0.54,-0.077 -0.483,0 -0.714,0.259 -0.714,0.819 V 0 h -0.455 v 0.512 h 0.455 v 1.071 h 0.645 V 0.512 H 0 Z"
               style="fill:#231916;fill-opacity:1;fill-rule:nonzero;stroke:none"
               id="path765" />
          </g>
          <path
             d="m 413.673,241.554 h -0.644 v 3.383 h 0.644 z m 0,3.922 h -0.644 v 0.75 h 0.644 z"
             style="fill:#231916;fill-opacity:1;fill-rule:nonzero;stroke:none"
             id="path767" />
          <g
             id="g769"
             transform="translate(415.3252,241.5541)">
            <path
               d="m 0,0 -1.162,3.383 h 0.685 L 0.098,1.568 C 0.168,1.352 0.28,0.938 0.364,0.623 0.371,0.672 0.386,0.729 0.399,0.764 L 0.462,1.016 C 0.477,1.071 0.588,1.45 0.616,1.555 L 1.19,3.383 H 1.877 L 0.707,0 Z"
               style="fill:#231916;fill-opacity:1;fill-rule:nonzero;stroke:none"
               id="path771" />
          </g>
          <g
             id="g773"
             transform="translate(419.8057,243.2914)">
            <path
               d="M 0,0 C -0.119,-0.05 -0.23,-0.084 -0.399,-0.126 L -1.058,-0.28 c -0.391,-0.091 -0.567,-0.252 -0.567,-0.519 0,-0.308 0.253,-0.518 0.631,-0.518 0.546,0 0.994,0.399 0.994,0.882 z m -2.115,0.525 c 0.028,0.399 0.105,0.637 0.273,0.827 0.217,0.245 0.623,0.384 1.1,0.384 0.841,0 1.316,-0.399 1.316,-1.099 v -1.59 c 0,-0.266 0.035,-0.322 0.183,-0.322 0.055,0 0.091,0.007 0.168,0.035 v -0.497 c -0.154,-0.035 -0.287,-0.049 -0.42,-0.049 -0.309,0 -0.448,0.133 -0.505,0.455 -0.343,-0.343 -0.714,-0.497 -1.169,-0.497 -0.659,0 -1.107,0.406 -1.107,1.001 0,0.547 0.337,0.883 1.022,1.022 l 0.75,0.148 c 0.406,0.077 0.49,0.139 0.49,0.35 0,0.329 -0.287,0.533 -0.742,0.533 -0.329,0 -0.589,-0.106 -0.68,-0.288 C -1.484,0.847 -1.499,0.771 -1.513,0.525 Z"
               style="fill:#231916;fill-opacity:1;fill-rule:nonzero;stroke:none"
               id="path775" />
          </g>
          <path
             d="m 421.996,241.554 h -0.644 v 4.672 h 0.644 z"
             style="fill:#231916;fill-opacity:1;fill-rule:nonzero;stroke:none"
             id="path777" />
          <g
             id="g779"
             transform="translate(428.0244,241.5541)">
            <path
               d="m 0,0 h -3.061 c -0.021,0.841 0.414,1.436 1.59,2.178 0.694,0.456 0.875,0.686 0.875,1.128 0,0.49 -0.349,0.834 -0.846,0.834 -0.386,0 -0.68,-0.197 -0.799,-0.526 C -2.283,3.48 -2.297,3.354 -2.297,3.012 h -0.624 v 0.175 c 0,0.476 0.099,0.798 0.329,1.057 0.267,0.316 0.673,0.477 1.17,0.477 0.883,0 1.478,-0.568 1.478,-1.408 0,-0.407 -0.14,-0.75 -0.413,-1.037 C -0.546,2.08 -0.638,2.01 -1.324,1.568 -1.807,1.247 -2.199,0.848 -2.283,0.581 H 0 Z"
               style="fill:#231916;fill-opacity:1;fill-rule:nonzero;stroke:none"
               id="path781" />
          </g>
          <g
             id="g783"
             transform="translate(429.6895,245.1537)">
            <path
               d="m 0,0 c -0.134,-0.314 -0.196,-0.707 -0.196,-1.281 0,-0.574 0.062,-0.974 0.196,-1.289 0.146,-0.329 0.434,-0.539 0.763,-0.539 0.322,0 0.616,0.21 0.757,0.539 0.132,0.315 0.196,0.708 0.196,1.26 C 1.716,-0.707 1.659,-0.308 1.52,0 1.372,0.337 1.078,0.54 0.756,0.54 0.434,0.54 0.146,0.337 0,0 m 2.038,0.351 c 0.231,-0.428 0.329,-0.925 0.329,-1.667 0,-0.672 -0.105,-1.191 -0.329,-1.604 -0.267,-0.483 -0.743,-0.77 -1.282,-0.77 -0.532,0 -1.009,0.287 -1.275,0.77 -0.224,0.427 -0.329,0.924 -0.329,1.639 0,0.707 0.105,1.225 0.329,1.632 0.274,0.483 0.743,0.77 1.275,0.77 0.547,0 1.015,-0.28 1.282,-0.77"
               style="fill:#231916;fill-opacity:1;fill-rule:nonzero;stroke:none"
               id="path785" />
          </g>
          <g
             id="g787"
             transform="translate(435.8643,241.5541)">
            <path
               d="m 0,0 h -3.061 c -0.021,0.841 0.414,1.436 1.59,2.178 0.694,0.456 0.875,0.686 0.875,1.128 0,0.49 -0.349,0.834 -0.846,0.834 -0.386,0 -0.68,-0.197 -0.799,-0.526 C -2.283,3.48 -2.297,3.354 -2.297,3.012 h -0.624 v 0.175 c 0,0.476 0.099,0.798 0.329,1.057 0.267,0.316 0.673,0.477 1.17,0.477 0.883,0 1.478,-0.568 1.478,-1.408 0,-0.407 -0.14,-0.75 -0.413,-1.037 C -0.546,2.08 -0.638,2.01 -1.324,1.568 -1.807,1.247 -2.199,0.848 -2.283,0.581 H 0 Z"
               style="fill:#231916;fill-opacity:1;fill-rule:nonzero;stroke:none"
               id="path789" />
          </g>
          <g
             id="g791"
             transform="translate(437.5293,245.1537)">
            <path
               d="m 0,0 c -0.134,-0.314 -0.196,-0.707 -0.196,-1.281 0,-0.574 0.062,-0.974 0.196,-1.289 0.146,-0.329 0.434,-0.539 0.763,-0.539 0.322,0 0.616,0.21 0.757,0.539 0.132,0.315 0.196,0.708 0.196,1.26 C 1.716,-0.707 1.659,-0.308 1.52,0 1.372,0.337 1.078,0.54 0.756,0.54 0.434,0.54 0.146,0.337 0,0 m 2.038,0.351 c 0.231,-0.428 0.329,-0.925 0.329,-1.667 0,-0.672 -0.105,-1.191 -0.329,-1.604 -0.267,-0.483 -0.743,-0.77 -1.282,-0.77 -0.532,0 -1.009,0.287 -1.275,0.77 -0.224,0.427 -0.329,0.924 -0.329,1.639 0,0.707 0.105,1.225 0.329,1.632 0.274,0.483 0.743,0.77 1.275,0.77 0.547,0 1.015,-0.28 1.282,-0.77"
               style="fill:#231916;fill-opacity:1;fill-rule:nonzero;stroke:none"
               id="path793" />
          </g>
        </g>
      </g>
    </g>
  </g>
</svg>
