<?xml version="1.0" encoding="UTF-8" standalone="no"?>
<svg
   xmlns:dc="http://purl.org/dc/elements/1.1/"
   xmlns:cc="http://creativecommons.org/ns#"
   xmlns:rdf="http://www.w3.org/1999/02/22-rdf-syntax-ns#"
   xmlns:svg="http://www.w3.org/2000/svg"
   xmlns="http://www.w3.org/2000/svg"
   id="svg8"
   version="1.1"
   viewBox="0 0 105.83333 113.77083"
   height="430"
   width="400">
  <defs
     id="defs2">
    <clipPath
       clipPathUnits="userSpaceOnUse"
       id="clipPath28">
      <path
         d="M 0,566.929 H 566.929 V 0 H 0 Z"
         id="path26" />
    </clipPath>
  </defs>
  <metadata
     id="metadata5">
    <rdf:RDF>
      <cc:Work
         rdf:about="">
        <dc:format>image/svg+xml</dc:format>
        <dc:type
           rdf:resource="http://purl.org/dc/dcmitype/StillImage" />
        <dc:title></dc:title>
      </cc:Work>
    </rdf:RDF>
  </metadata>
  <g
     transform="translate(0,-183.22914)"
     id="layer1">
    <g
       id="g18"
       transform="matrix(0.35277777,0,0,-0.35277777,6.9987605,254.9301)">
      <g
         transform="matrix(1.2877361,0,0,1.2877361,-236.38725,-323.25179)"
         id="g22">
        <g
           id="g24"
           clip-path="url(#clipPath28)">
          <g
             id="g30"
             transform="translate(177.3354,257.4457)">
            <path
               d="m 0,0 c 10.104,-5.534 21.455,-7.885 32.691,-10.559 0.14,-0.033 0.268,-0.087 0.401,-0.133 2.659,-0.303 5.29,-0.542 7.846,-0.73 5.512,-0.404 11.181,-0.678 16.878,-0.713 V 123.799 H -9.173 V 6.579 C -7.987,5.716 -6.868,4.77 -5.779,3.781 -3.862,2.508 -1.94,1.239 0,0"
               style="fill:#231916;fill-opacity:1;fill-rule:nonzero;stroke:none"
               id="path32" />
          </g>
          <g
             id="g34"
             transform="translate(362.2324,278.9985)">
            <path
               d="M 0,0 C 12.981,-3.622 25.361,-9.639 38.896,-8.993 V 102.246 H -28.093 V 1.062 C -19.357,4.15 -9.082,2.533 0,0"
               style="fill:#231916;fill-opacity:1;fill-rule:nonzero;stroke:none"
               id="path36" />
          </g>
          <g
             id="g38"
             transform="translate(318.0713,273.3754)">
            <path
               d="M 0,0 C 0.023,0.016 0.046,0.032 0.069,0.048 V 107.869 H -66.92 V -27.585 c 4.476,0.35 8.905,0.903 13.221,1.724 15.73,2.988 28.883,12.718 42.603,20.344 3.458,1.923 7.031,3.718 10.689,5.299 C -0.271,-0.146 -0.136,-0.072 0,0"
               style="fill:#231916;fill-opacity:1;fill-rule:nonzero;stroke:none"
               id="path40" />
          </g>
          <g
             id="g42"
             transform="translate(178.2378,205.9184)">
            <path
               d="m 0,0 v -3.966 c 2.405,3.575 4.615,4.811 8.516,4.811 4.16,0 6.695,-1.625 8.125,-5.266 2.47,3.771 5.07,5.266 9.49,5.266 3.315,0 6.176,-1.17 7.735,-3.25 1.43,-1.755 2.015,-4.031 2.015,-7.671 v -21.32 h -5.98 v 20.866 c 0,4.094 -1.69,6.045 -5.2,6.045 -4.095,0 -6.63,-2.991 -6.63,-7.801 v -19.11 h -5.98 v 21.385 c 0,3.575 -1.82,5.526 -5.2,5.526 -4.031,0 -6.631,-2.925 -6.631,-7.476 V -31.396 H -5.72 V 0 Z"
               style="fill:#231916;fill-opacity:1;fill-rule:nonzero;stroke:none"
               id="path44" />
          </g>
          <g
             id="g46"
             transform="translate(243.4331,174.5219)">
            <path
               d="m 0,0 v 3.575 c -3.12,-3.315 -5.655,-4.42 -9.945,-4.42 -3.705,0 -6.761,1.235 -8.516,3.445 -1.495,1.95 -2.08,4.16 -2.08,7.8 v 20.996 h 5.98 V 10.855 c 0,-4.29 1.951,-6.37 6.045,-6.37 5.136,0 8.256,2.991 8.256,7.866 V 31.396 H 5.72 V 0 Z"
               style="fill:#231916;fill-opacity:1;fill-rule:nonzero;stroke:none"
               id="path48" />
          </g>
          <g
             id="g50"
             transform="translate(275.9976,196.2973)">
            <path
               d="m 0,0 c -0.846,3.9 -2.99,5.525 -7.151,5.525 -3.575,0 -5.98,-1.495 -5.98,-3.705 0,-1.559 1.105,-2.599 3.64,-3.25 l 7.28,-1.884 c 6.565,-1.691 9.296,-4.42 9.296,-9.231 0,-6.176 -5.07,-10.075 -13.065,-10.075 -8.516,0 -13.586,4.16 -14.236,11.635 h 5.915 c 0.325,-4.161 3.445,-6.63 8.45,-6.63 4.29,0 7.085,1.885 7.085,4.81 0,2.08 -1.365,3.185 -5.005,4.16 l -6.24,1.56 c -3.315,0.845 -5.33,1.755 -6.63,2.925 -1.43,1.235 -2.34,3.315 -2.34,5.395 0,5.396 5.005,9.231 12.09,9.231 4.486,0 8.191,-1.495 10.401,-4.16 C 4.875,4.615 5.46,2.926 5.72,0 Z"
               style="fill:#231916;fill-opacity:1;fill-rule:nonzero;stroke:none"
               id="path52" />
          </g>
          <g
             id="g54"
             transform="translate(309.0811,190.643)">
            <path
               d="m 0,0 c -1.105,-0.455 -2.146,-0.78 -3.705,-1.171 l -6.11,-1.43 c -3.64,-0.844 -5.265,-2.339 -5.265,-4.81 0,-2.86 2.34,-4.81 5.85,-4.81 5.07,0 9.23,3.705 9.23,8.191 z m -19.631,4.875 c 0.26,3.705 0.976,5.915 2.535,7.67 2.016,2.275 5.785,3.575 10.205,3.575 C 0.91,16.12 5.33,12.415 5.33,5.915 V -8.841 c 0,-2.47 0.325,-2.99 1.691,-2.99 0.519,0 0.844,0.065 1.559,0.325 v -4.615 c -1.43,-0.325 -2.665,-0.455 -3.9,-0.455 -2.86,0 -4.16,1.235 -4.68,4.225 -3.186,-3.185 -6.63,-4.615 -10.855,-4.615 -6.111,0 -10.271,3.77 -10.271,9.295 0,5.07 3.12,8.191 9.49,9.49 l 6.956,1.366 c 3.77,0.714 4.55,1.299 4.55,3.25 0,3.055 -2.665,4.94 -6.891,4.94 -3.054,0 -5.459,-0.975 -6.304,-2.665 -0.455,-0.845 -0.585,-1.561 -0.716,-3.835 z"
               style="fill:#231916;fill-opacity:1;fill-rule:nonzero;stroke:none"
               id="path56" />
          </g>
          <g
             id="g58"
             transform="translate(341.5156,196.2973)">
            <path
               d="m 0,0 c -0.845,3.9 -2.99,5.525 -7.15,5.525 -3.576,0 -5.981,-1.495 -5.981,-3.705 0,-1.559 1.106,-2.599 3.641,-3.25 l 7.28,-1.884 c 6.565,-1.691 9.295,-4.42 9.295,-9.231 0,-6.176 -5.07,-10.075 -13.065,-10.075 -8.515,0 -13.585,4.16 -14.236,11.635 h 5.915 c 0.325,-4.161 3.446,-6.63 8.45,-6.63 4.291,0 7.086,1.885 7.086,4.81 0,2.08 -1.365,3.185 -5.006,4.16 l -6.24,1.56 c -3.314,0.845 -5.33,1.755 -6.63,2.925 -1.429,1.235 -2.339,3.315 -2.339,5.395 0,5.396 5.004,9.231 12.089,9.231 4.486,0 8.191,-1.495 10.401,-4.16 C 4.875,4.615 5.46,2.926 5.721,0 Z"
               style="fill:#231916;fill-opacity:1;fill-rule:nonzero;stroke:none"
               id="path60" />
          </g>
          <g
             id="g62"
             transform="translate(361.0146,203.058)">
            <path
               d="m 0,0 c 3.056,2.665 5.591,3.705 9.36,3.705 3.836,0 6.956,-1.3 8.841,-3.64 1.495,-1.82 2.08,-4.03 2.08,-7.605 v -20.996 h -5.98 v 20.02 c 0,2.665 -0.325,4.031 -1.3,5.071 -1.04,1.17 -2.73,1.82 -4.811,1.82 -5.2,0 -8.19,-3.12 -8.19,-8.386 V -28.536 H -5.979 V 14.82 H 0 Z"
               style="fill:#231916;fill-opacity:1;fill-rule:nonzero;stroke:none"
               id="path64" />
          </g>
          <path
             d="m 396.049,174.522 h -5.979 v 31.396 h 5.979 z m 0,36.401 h -5.979 v 6.955 h 5.979 z"
             style="fill:#231916;fill-opacity:1;fill-rule:nonzero;stroke:none"
             id="path66" />
          <path
             d="m 235.151,368.665 h -66.989 v 40.088 h 66.989 z"
             style="fill:#231916;fill-opacity:1;fill-rule:nonzero;stroke:none"
             id="path68" />
          <path
             d="m 318.141,368.665 h -66.989 v 40.088 h 66.989 z"
             style="fill:#231916;fill-opacity:1;fill-rule:nonzero;stroke:none"
             id="path70" />
          <path
             d="M 401.129,368.665 H 334.14 v 40.088 h 66.989 z"
             style="fill:#231916;fill-opacity:1;fill-rule:nonzero;stroke:none"
             id="path72" />
          <g
             id="g74"
             transform="translate(174.0327,266.8168)">
            <path
               d="m 0,0 c 0,1.149 -0.62,1.819 -1.519,1.819 -0.879,0 -1.549,-0.859 -1.549,-1.419 0.01,-1.369 0.589,-2.308 1.629,-2.308 C -0.57,-1.908 0,-1.129 0,0 m -3.028,1.529 c 0.34,0.5 0.949,0.92 1.749,0.92 1.269,0 2.118,-0.949 2.118,-2.388 0,-1.37 -0.839,-2.62 -2.298,-2.62 -1.459,0 -2.439,1.21 -2.439,3.149 0,2.009 0.94,4.108 3.368,4.508 0.28,0.04 0.53,0.07 0.7,0.07 l 0.01,-0.69 c -2.079,0 -3.068,-1.509 -3.238,-2.949 z"
               style="fill:#ffffff;fill-opacity:1;fill-rule:nonzero;stroke:none"
               id="path76" />
          </g>
          <g
             id="g78"
             transform="translate(230.4766,251.183)">
            <path
               d="m 0,0 c 0.08,-0.01 0.14,-0.01 0.18,-0.01 0.799,0 1.34,0.43 1.34,1.07 0,0.588 -0.46,1.008 -1.1,1.008 -0.75,0 -1.199,-0.499 -1.19,-1.339 h -0.869 c 0,1.33 0.809,2.169 2.099,2.169 1.149,0 1.989,-0.759 1.989,-1.798 0,-0.651 -0.3,-1.09 -0.96,-1.44 0.78,-0.38 1.15,-0.91 1.15,-1.649 0,-1.15 -0.93,-1.979 -2.199,-1.979 -1.379,0 -2.339,0.949 -2.349,2.319 h 0.88 c 0.04,-0.9 0.619,-1.49 1.449,-1.49 0.749,0 1.289,0.491 1.289,1.15 0,0.729 -0.609,1.229 -1.499,1.229 H 0 Z"
               style="fill:#ffffff;fill-opacity:1;fill-rule:nonzero;stroke:none"
               id="path80" />
          </g>
          <g
             id="g82"
             transform="translate(275.7744,257.6147)">
            <path
               d="M 0,0 V 0.279 L 0.01,0.52 c 0,0.099 0,0.12 0.019,0.419 C -0.24,0.52 -0.351,0.35 -0.5,0.14 L -2.02,-2.029 H 0 Z m -2.859,-2.778 v 0.899 l 2.968,4.178 h 0.77 V -2.029 H 1.698 V -2.778 H 0.879 v -1.52 H 0 v 1.52 z"
               style="fill:#ffffff;fill-opacity:1;fill-rule:nonzero;stroke:none"
               id="path84" />
          </g>
          <g
             id="g86"
             transform="translate(338.6738,288.7309)">
            <path
               d="m 0,0 c 0,-0.819 0.529,-1.419 1.27,-1.419 0.729,0 1.249,0.589 1.249,1.389 0,0.809 -0.54,1.409 -1.259,1.409 C 0.55,1.379 0,0.779 0,0 m 0.06,-2.858 c 0.169,-0.72 0.53,-1.06 1.109,-1.06 0.91,0 1.47,0.899 1.569,2.509 -0.519,-0.6 -0.939,-0.81 -1.589,-0.81 -1.199,0 -2.048,0.89 -2.048,2.169 0,1.299 0.879,2.229 2.108,2.229 1.479,0 2.389,-1.26 2.389,-3.298 0,-2.219 -0.929,-3.568 -2.449,-3.568 -1.069,0 -1.798,0.679 -1.968,1.829 z"
               style="fill:#ffffff;fill-opacity:1;fill-rule:nonzero;stroke:none"
               id="path88" />
          </g>
          <g
             id="g90"
             transform="translate(395.9102,277.9741)">
            <path
               d="m 0,0 c 0,-0.56 0.44,-0.949 1.08,-0.949 0.619,0 1.069,0.389 1.069,0.939 0,0.57 -0.429,0.96 -1.08,0.96 C 0.44,0.95 0,0.56 0,0 m -0.27,-3.008 c 0,-0.74 0.55,-1.25 1.35,-1.25 0.779,0 1.339,0.51 1.339,1.23 0,0.75 -0.54,1.259 -1.35,1.259 -0.789,0 -1.339,-0.509 -1.339,-1.239 m 3.619,-0.05 c 0,-1.17 -0.97,-2.029 -2.269,-2.029 -1.309,0 -2.279,0.869 -2.279,2.029 0,0.749 0.37,1.319 1.13,1.739 -0.55,0.32 -0.83,0.799 -0.83,1.389 0,0.99 0.83,1.709 1.979,1.709 1.139,0 1.969,-0.719 1.969,-1.709 0,-0.59 -0.28,-1.069 -0.83,-1.389 0.76,-0.42 1.13,-0.99 1.13,-1.739"
               style="fill:#ffffff;fill-opacity:1;fill-rule:nonzero;stroke:none"
               id="path92" />
          </g>
          <g
             id="g94"
             transform="translate(178.2124,159.5795)">
            <path
               d="M 0,0 -1.085,2.802 C -1.211,3.159 -1.316,3.467 -1.401,3.768 -1.38,3.418 -1.366,3.04 -1.366,2.745 V 0 h -0.63 v 4.672 h 0.819 l 1.163,-2.991 c 0.147,-0.407 0.168,-0.455 0.28,-0.827 0.14,0.42 0.196,0.575 0.28,0.813 L 1.702,4.65 H 2.521 V 0 h -0.63 v 2.745 c 0,0.322 0.014,0.659 0.035,1.023 C 1.814,3.39 1.73,3.124 1.583,2.745 L 0.525,0 Z"
               style="fill:#231916;fill-opacity:1;fill-rule:nonzero;stroke:none"
               id="path96" />
          </g>
          <g
             id="g98"
             transform="translate(183.9668,159.5795)">
            <path
               d="m 0,0 v 0.385 c -0.336,-0.357 -0.609,-0.476 -1.072,-0.476 -0.399,0 -0.728,0.133 -0.917,0.371 -0.161,0.21 -0.224,0.449 -0.224,0.841 v 2.262 h 0.644 V 1.17 c 0,-0.463 0.21,-0.687 0.652,-0.687 0.553,0 0.889,0.323 0.889,0.848 V 3.383 H 0.616 V 0 Z"
               style="fill:#231916;fill-opacity:1;fill-rule:nonzero;stroke:none"
               id="path100" />
          </g>
          <g
             id="g102"
             transform="translate(187.4736,161.9262)">
            <path
               d="m 0,0 c -0.091,0.42 -0.322,0.595 -0.771,0.595 -0.385,0 -0.644,-0.161 -0.644,-0.4 0,-0.168 0.119,-0.279 0.392,-0.349 l 0.785,-0.203 c 0.707,-0.183 1.001,-0.477 1.001,-0.996 0,-0.665 -0.546,-1.085 -1.408,-1.085 -0.917,0 -1.463,0.449 -1.533,1.254 h 0.637 c 0.035,-0.448 0.371,-0.714 0.911,-0.714 0.462,0 0.763,0.203 0.763,0.518 0,0.224 -0.147,0.343 -0.539,0.448 l -0.673,0.168 c -0.357,0.091 -0.574,0.189 -0.714,0.316 -0.154,0.133 -0.252,0.356 -0.252,0.581 0,0.581 0.539,0.994 1.302,0.994 0.484,0 0.883,-0.161 1.121,-0.448 C 0.525,0.497 0.588,0.314 0.616,0 Z"
               style="fill:#231916;fill-opacity:1;fill-rule:nonzero;stroke:none"
               id="path104" />
          </g>
          <g
             id="g106"
             transform="translate(191.0366,161.3168)">
            <path
               d="M 0,0 C -0.119,-0.05 -0.231,-0.084 -0.399,-0.126 L -1.058,-0.28 c -0.392,-0.091 -0.567,-0.252 -0.567,-0.519 0,-0.308 0.252,-0.518 0.63,-0.518 0.547,0 0.995,0.399 0.995,0.882 z m -2.115,0.525 c 0.028,0.399 0.105,0.637 0.273,0.827 0.217,0.245 0.623,0.384 1.099,0.384 0.841,0 1.317,-0.399 1.317,-1.099 v -1.59 c 0,-0.266 0.035,-0.322 0.182,-0.322 0.056,0 0.091,0.007 0.168,0.035 V -1.737 C 0.77,-1.772 0.637,-1.786 0.504,-1.786 c -0.308,0 -0.448,0.133 -0.504,0.455 -0.343,-0.343 -0.715,-0.497 -1.17,-0.497 -0.658,0 -1.106,0.406 -1.106,1.001 0,0.547 0.336,0.883 1.022,1.022 l 0.75,0.148 c 0.406,0.077 0.49,0.139 0.49,0.35 0,0.329 -0.287,0.533 -0.743,0.533 -0.329,0 -0.588,-0.106 -0.679,-0.288 C -1.485,0.847 -1.499,0.771 -1.513,0.525 Z"
               style="fill:#231916;fill-opacity:1;fill-rule:nonzero;stroke:none"
               id="path108" />
          </g>
          <g
             id="g110"
             transform="translate(194.5293,161.9262)">
            <path
               d="m 0,0 c -0.091,0.42 -0.322,0.595 -0.771,0.595 -0.385,0 -0.644,-0.161 -0.644,-0.4 0,-0.168 0.119,-0.279 0.392,-0.349 l 0.785,-0.203 c 0.707,-0.183 1.001,-0.477 1.001,-0.996 0,-0.665 -0.546,-1.085 -1.408,-1.085 -0.917,0 -1.463,0.449 -1.533,1.254 h 0.637 c 0.035,-0.448 0.371,-0.714 0.911,-0.714 0.462,0 0.763,0.203 0.763,0.518 0,0.224 -0.147,0.343 -0.539,0.448 l -0.673,0.168 c -0.357,0.091 -0.574,0.189 -0.714,0.316 -0.154,0.133 -0.252,0.356 -0.252,0.581 0,0.581 0.539,0.994 1.302,0.994 0.484,0 0.883,-0.161 1.121,-0.448 C 0.525,0.497 0.588,0.314 0.616,0 Z"
               style="fill:#231916;fill-opacity:1;fill-rule:nonzero;stroke:none"
               id="path112" />
          </g>
          <g
             id="g114"
             transform="translate(196.6284,162.6537)">
            <path
               d="m 0,0 c 0.329,0.287 0.602,0.399 1.008,0.399 0.413,0 0.75,-0.139 0.953,-0.391 0.161,-0.196 0.224,-0.435 0.224,-0.82 V -3.074 H 1.541 v 2.157 C 1.541,-0.63 1.506,-0.482 1.4,-0.371 1.289,-0.245 1.106,-0.175 0.882,-0.175 0.322,-0.175 0,-0.511 0,-1.078 V -3.074 H -0.645 V 1.598 H 0 Z"
               style="fill:#231916;fill-opacity:1;fill-rule:nonzero;stroke:none"
               id="path116" />
          </g>
          <path
             d="m 200.401,159.58 h -0.645 v 3.383 h 0.645 z m 0,3.921 h -0.645 v 0.75 h 0.645 z"
             style="fill:#231916;fill-opacity:1;fill-rule:nonzero;stroke:none"
             id="path118" />
          <g
             id="g120"
             transform="translate(204.1885,161.7231)">
            <path
               d="M 0,0 V -2.144 H -0.666 V 2.528 H 0 V 0.581 H 2.346 V 2.528 H 3.012 V -2.144 H 2.346 V 0 Z"
               style="fill:#231916;fill-opacity:1;fill-rule:nonzero;stroke:none"
               id="path122" />
          </g>
          <path
             d="m 208.857,159.58 h -0.645 v 3.383 h 0.645 z m 0,3.921 h -0.645 v 0.75 h 0.645 z"
             style="fill:#231916;fill-opacity:1;fill-rule:nonzero;stroke:none"
             id="path124" />
          <g
             id="g126"
             transform="translate(210.2783,161.3725)">
            <path
               d="m 0,0 c 0,-0.693 0.343,-1.121 0.91,-1.121 0.554,0 0.904,0.428 0.904,1.107 0,0.707 -0.336,1.135 -0.911,1.135 C 0.343,1.121 0,0.693 0,0 m 2.416,1.59 v -3.25 c 0,-0.448 -0.105,-0.742 -0.343,-0.939 -0.266,-0.23 -0.679,-0.357 -1.184,-0.357 -0.497,0 -0.889,0.134 -1.127,0.386 -0.147,0.154 -0.218,0.322 -0.245,0.623 h 0.616 c 0.035,-0.329 0.294,-0.497 0.777,-0.497 0.61,0 0.89,0.258 0.89,0.819 v 0.386 C 1.527,-1.534 1.19,-1.681 0.798,-1.681 c -0.854,0 -1.449,0.679 -1.449,1.653 0,1.008 0.602,1.709 1.463,1.709 0.441,0 0.722,-0.133 1.002,-0.462 L 1.8,1.59 Z"
               style="fill:#231916;fill-opacity:1;fill-rule:nonzero;stroke:none"
               id="path128" />
          </g>
          <g
             id="g130"
             transform="translate(214.2754,162.6537)">
            <path
               d="m 0,0 c 0.329,0.287 0.602,0.399 1.008,0.399 0.413,0 0.75,-0.139 0.953,-0.391 0.161,-0.196 0.224,-0.435 0.224,-0.82 V -3.074 H 1.541 v 2.157 C 1.541,-0.63 1.506,-0.482 1.4,-0.371 1.289,-0.245 1.106,-0.175 0.882,-0.175 0.322,-0.175 0,-0.511 0,-1.078 V -3.074 H -0.645 V 1.598 H 0 Z"
               style="fill:#231916;fill-opacity:1;fill-rule:nonzero;stroke:none"
               id="path132" />
          </g>
          <g
             id="g134"
             transform="translate(222.3755,162.808)">
            <path
               d="m 0,0 c -0.07,0.645 -0.455,0.96 -1.163,0.96 -0.623,0 -1.022,-0.267 -1.022,-0.673 0,-0.343 0.245,-0.546 0.84,-0.679 l 0.757,-0.169 c 0.553,-0.126 0.833,-0.245 1.057,-0.448 0.245,-0.217 0.379,-0.532 0.379,-0.896 0,-0.882 -0.715,-1.429 -1.849,-1.429 -1.212,0 -1.94,0.617 -2.039,1.737 h 0.694 c 0.07,-0.742 0.56,-1.155 1.366,-1.155 0.672,0 1.148,0.329 1.148,0.798 0,0.35 -0.252,0.582 -0.742,0.7 l -1.051,0.253 c -0.854,0.203 -1.24,0.581 -1.24,1.211 0,0.819 0.68,1.338 1.751,1.338 1.072,0 1.646,-0.497 1.793,-1.548 z"
               style="fill:#231916;fill-opacity:1;fill-rule:nonzero;stroke:none"
               id="path136" />
          </g>
          <g
             id="g138"
             transform="translate(226.3789,161.8139)">
            <path
               d="m 0,0 c -0.098,0.462 -0.392,0.7 -0.854,0.7 -0.617,0 -1.03,-0.49 -1.03,-1.232 0,-0.764 0.406,-1.254 1.03,-1.254 0.504,0 0.805,0.273 0.896,0.819 h 0.609 c -0.09,-0.861 -0.644,-1.358 -1.519,-1.358 -1.009,0 -1.667,0.707 -1.667,1.786 0,1.078 0.665,1.778 1.688,1.778 0.826,0 1.366,-0.455 1.456,-1.239 z"
               style="fill:#231916;fill-opacity:1;fill-rule:nonzero;stroke:none"
               id="path140" />
          </g>
          <g
             id="g142"
             transform="translate(228.3594,162.6537)">
            <path
               d="m 0,0 c 0.329,0.287 0.602,0.399 1.008,0.399 0.413,0 0.75,-0.139 0.953,-0.391 0.161,-0.196 0.224,-0.435 0.224,-0.82 V -3.074 H 1.541 v 2.157 C 1.541,-0.63 1.506,-0.482 1.4,-0.371 1.289,-0.245 1.106,-0.175 0.882,-0.175 0.322,-0.175 0,-0.511 0,-1.078 V -3.074 H -0.645 V 1.598 H 0 Z"
               style="fill:#231916;fill-opacity:1;fill-rule:nonzero;stroke:none"
               id="path144" />
          </g>
          <g
             id="g146"
             transform="translate(231.9712,161.2748)">
            <path
               d="m 0,0 c 0,-0.792 0.357,-1.247 0.98,-1.247 0.61,0 0.974,0.455 0.974,1.226 0,0.812 -0.35,1.26 -0.98,1.26 C 0.357,1.239 0,0.784 0,0 m 2.605,-0.028 c 0,-1.037 -0.665,-1.758 -1.631,-1.758 -0.967,0 -1.625,0.721 -1.625,1.786 0,1.058 0.658,1.778 1.625,1.778 0.987,0 1.631,-0.714 1.631,-1.806"
               style="fill:#231916;fill-opacity:1;fill-rule:nonzero;stroke:none"
               id="path148" />
          </g>
          <g
             id="g150"
             transform="translate(235.8213,161.2748)">
            <path
               d="m 0,0 c 0,-0.792 0.357,-1.247 0.98,-1.247 0.61,0 0.974,0.455 0.974,1.226 0,0.812 -0.35,1.26 -0.98,1.26 C 0.357,1.239 0,0.784 0,0 m 2.605,-0.028 c 0,-1.037 -0.665,-1.758 -1.631,-1.758 -0.967,0 -1.625,0.721 -1.625,1.786 0,1.058 0.658,1.778 1.625,1.778 0.987,0 1.631,-0.714 1.631,-1.806"
               style="fill:#231916;fill-opacity:1;fill-rule:nonzero;stroke:none"
               id="path152" />
          </g>
          <path
             d="m 239.833,159.58 h -0.645 v 4.672 h 0.645 z"
             style="fill:#231916;fill-opacity:1;fill-rule:nonzero;stroke:none"
             id="path154" />
          <g
             id="g156"
             transform="translate(244.978,161.3168)">
            <path
               d="M 0,0 C -0.119,-0.05 -0.231,-0.084 -0.399,-0.126 L -1.057,-0.28 c -0.393,-0.091 -0.568,-0.252 -0.568,-0.519 0,-0.308 0.252,-0.518 0.631,-0.518 0.546,0 0.994,0.399 0.994,0.882 z m -2.115,0.525 c 0.028,0.399 0.105,0.637 0.273,0.827 0.217,0.245 0.624,0.384 1.1,0.384 0.84,0 1.317,-0.399 1.317,-1.099 v -1.59 c 0,-0.266 0.034,-0.322 0.182,-0.322 0.055,0 0.091,0.007 0.168,0.035 V -1.737 C 0.771,-1.772 0.638,-1.786 0.504,-1.786 c -0.308,0 -0.448,0.133 -0.504,0.455 -0.343,-0.343 -0.714,-0.497 -1.169,-0.497 -0.659,0 -1.107,0.406 -1.107,1.001 0,0.547 0.336,0.883 1.023,1.022 l 0.749,0.148 c 0.406,0.077 0.49,0.139 0.49,0.35 0,0.329 -0.287,0.533 -0.742,0.533 -0.329,0 -0.589,-0.106 -0.68,-0.288 C -1.484,0.847 -1.499,0.771 -1.513,0.525 Z"
               style="fill:#231916;fill-opacity:1;fill-rule:nonzero;stroke:none"
               id="path158" />
          </g>
          <g
             id="g160"
             transform="translate(247.1401,162.9623)">
            <path
               d="m 0,0 v -0.385 c 0.336,0.357 0.609,0.476 1.072,0.476 0.399,0 0.728,-0.133 0.917,-0.371 0.161,-0.21 0.224,-0.449 0.224,-0.84 V -3.383 H 1.569 v 2.213 c 0,0.463 -0.21,0.687 -0.652,0.687 -0.553,0 -0.889,-0.323 -0.889,-0.848 V -3.383 H -0.616 V 0 Z"
               style="fill:#231916;fill-opacity:1;fill-rule:nonzero;stroke:none"
               id="path162" />
          </g>
          <g
             id="g164"
             transform="translate(250.7729,161.2748)">
            <path
               d="m 0,0 c 0,-0.799 0.351,-1.247 0.96,-1.247 0.616,0 0.966,0.448 0.966,1.226 0,0.812 -0.343,1.26 -0.966,1.26 C 0.351,1.239 0,0.791 0,0 M 2.535,-1.695 H 1.892 v 0.364 C 1.569,-1.653 1.247,-1.786 0.819,-1.786 c -0.903,0 -1.47,0.7 -1.47,1.8 0,1.078 0.574,1.764 1.47,1.764 0.435,0 0.757,-0.139 1.073,-0.455 v 1.654 h 0.643 z"
               style="fill:#231916;fill-opacity:1;fill-rule:nonzero;stroke:none"
               id="path166" />
          </g>
          <g
             id="g168"
             transform="translate(258.6909,164.2514)">
            <path
               d="m 0,0 v -3.313 c 0,-0.546 -0.077,-0.827 -0.301,-1.065 -0.238,-0.259 -0.609,-0.399 -1.057,-0.399 -0.631,0 -1.086,0.273 -1.268,0.77 -0.07,0.196 -0.092,0.413 -0.099,0.869 h 0.666 c 0.007,-0.337 0.021,-0.49 0.07,-0.637 0.098,-0.274 0.322,-0.42 0.631,-0.42 0.223,0 0.413,0.084 0.525,0.23 0.126,0.154 0.168,0.337 0.168,0.666 V 0 Z"
               style="fill:#231916;fill-opacity:1;fill-rule:nonzero;stroke:none"
               id="path170" />
          </g>
          <g
             id="g172"
             transform="translate(261.9253,159.5795)">
            <path
               d="m 0,0 v 0.385 c -0.336,-0.357 -0.609,-0.476 -1.071,-0.476 -0.4,0 -0.729,0.133 -0.918,0.371 -0.161,0.21 -0.224,0.449 -0.224,0.841 v 2.262 h 0.644 V 1.17 c 0,-0.463 0.21,-0.687 0.651,-0.687 0.554,0 0.89,0.323 0.89,0.848 V 3.383 H 0.616 V 0 Z"
               style="fill:#231916;fill-opacity:1;fill-rule:nonzero;stroke:none"
               id="path174" />
          </g>
          <g
             id="g176"
             transform="translate(264.1011,162.9623)">
            <path
               d="m 0,0 v -0.385 c 0.336,0.357 0.609,0.476 1.071,0.476 0.4,0 0.729,-0.133 0.917,-0.371 0.161,-0.21 0.225,-0.449 0.225,-0.84 V -3.383 H 1.568 v 2.213 c 0,0.463 -0.21,0.687 -0.651,0.687 -0.553,0 -0.89,-0.323 -0.89,-0.848 V -3.383 H -0.616 V 0 Z"
               style="fill:#231916;fill-opacity:1;fill-rule:nonzero;stroke:none"
               id="path178" />
          </g>
          <path
             d="m 267.901,159.58 h -0.644 v 3.383 h 0.644 z m 0,3.921 h -0.644 v 0.75 h 0.644 z"
             style="fill:#231916;fill-opacity:1;fill-rule:nonzero;stroke:none"
             id="path180" />
          <g
             id="g182"
             transform="translate(269.3218,161.2748)">
            <path
               d="m 0,0 c 0,-0.792 0.357,-1.247 0.98,-1.247 0.61,0 0.974,0.455 0.974,1.226 0,0.812 -0.35,1.26 -0.98,1.26 C 0.357,1.239 0,0.784 0,0 m 2.605,-0.028 c 0,-1.037 -0.665,-1.758 -1.631,-1.758 -0.966,0 -1.625,0.721 -1.625,1.786 0,1.058 0.659,1.778 1.625,1.778 0.988,0 1.631,-0.714 1.631,-1.806"
               style="fill:#231916;fill-opacity:1;fill-rule:nonzero;stroke:none"
               id="path184" />
          </g>
          <g
             id="g186"
             transform="translate(273.3052,162.9623)">
            <path
               d="m 0,0 v -0.532 c 0.133,0.196 0.188,0.273 0.28,0.357 0.154,0.161 0.399,0.266 0.602,0.266 0.126,0 0.245,-0.028 0.357,-0.084 v -0.581 c -0.133,0.028 -0.203,0.035 -0.294,0.035 -0.518,0 -0.918,-0.463 -0.918,-1.065 V -3.383 H -0.616 V 0 Z"
               style="fill:#231916;fill-opacity:1;fill-rule:nonzero;stroke:none"
               id="path188" />
          </g>
          <g
             id="g190"
             transform="translate(277.9731,161.7231)">
            <path
               d="M 0,0 V -2.144 H -0.665 V 2.528 H 0 V 0.581 H 2.346 V 2.528 H 3.012 V -2.144 H 2.346 V 0 Z"
               style="fill:#231916;fill-opacity:1;fill-rule:nonzero;stroke:none"
               id="path192" />
          </g>
          <path
             d="m 282.642,159.58 h -0.644 v 3.383 h 0.644 z m 0,3.921 h -0.644 v 0.75 h 0.644 z"
             style="fill:#231916;fill-opacity:1;fill-rule:nonzero;stroke:none"
             id="path194" />
          <g
             id="g196"
             transform="translate(284.0635,161.3725)">
            <path
               d="m 0,0 c 0,-0.693 0.344,-1.121 0.911,-1.121 0.553,0 0.903,0.428 0.903,1.107 0,0.707 -0.335,1.135 -0.91,1.135 C 0.344,1.121 0,0.693 0,0 m 2.417,1.59 v -3.25 c 0,-0.448 -0.105,-0.742 -0.344,-0.939 -0.265,-0.23 -0.678,-0.357 -1.183,-0.357 -0.497,0 -0.89,0.134 -1.128,0.386 -0.147,0.154 -0.218,0.322 -0.245,0.623 h 0.617 c 0.034,-0.329 0.294,-0.497 0.777,-0.497 0.61,0 0.89,0.258 0.89,0.819 v 0.386 c -0.274,-0.295 -0.61,-0.442 -1.002,-0.442 -0.855,0 -1.451,0.679 -1.451,1.653 0,1.008 0.603,1.709 1.464,1.709 0.442,0 0.722,-0.133 1.002,-0.462 L 1.801,1.59 Z"
               style="fill:#231916;fill-opacity:1;fill-rule:nonzero;stroke:none"
               id="path198" />
          </g>
          <g
             id="g200"
             transform="translate(288.0605,162.6537)">
            <path
               d="m 0,0 c 0.329,0.287 0.603,0.399 1.009,0.399 0.413,0 0.749,-0.139 0.952,-0.391 0.161,-0.196 0.225,-0.435 0.225,-0.82 V -3.074 H 1.541 v 2.157 c 0,0.287 -0.035,0.435 -0.14,0.546 C 1.289,-0.245 1.106,-0.175 0.883,-0.175 0.322,-0.175 0,-0.511 0,-1.078 V -3.074 H -0.644 V 1.598 H 0 Z"
               style="fill:#231916;fill-opacity:1;fill-rule:nonzero;stroke:none"
               id="path202" />
          </g>
          <g
             id="g204"
             transform="translate(296.1602,162.808)">
            <path
               d="m 0,0 c -0.07,0.645 -0.455,0.96 -1.163,0.96 -0.623,0 -1.023,-0.267 -1.023,-0.673 0,-0.343 0.246,-0.546 0.841,-0.679 l 0.757,-0.169 c 0.553,-0.126 0.833,-0.245 1.058,-0.448 0.245,-0.217 0.378,-0.532 0.378,-0.896 0,-0.882 -0.715,-1.429 -1.85,-1.429 -1.211,0 -1.939,0.617 -2.038,1.737 h 0.693 c 0.071,-0.742 0.561,-1.155 1.367,-1.155 0.671,0 1.148,0.329 1.148,0.798 0,0.35 -0.252,0.582 -0.742,0.7 l -1.051,0.253 c -0.854,0.203 -1.239,0.581 -1.239,1.211 0,0.819 0.678,1.338 1.751,1.338 1.071,0 1.645,-0.497 1.793,-1.548 z"
               style="fill:#231916;fill-opacity:1;fill-rule:nonzero;stroke:none"
               id="path206" />
          </g>
          <g
             id="g208"
             transform="translate(300.1641,161.8139)">
            <path
               d="m 0,0 c -0.099,0.462 -0.393,0.7 -0.854,0.7 -0.617,0 -1.031,-0.49 -1.031,-1.232 0,-0.764 0.406,-1.254 1.031,-1.254 0.503,0 0.804,0.273 0.896,0.819 h 0.609 c -0.091,-0.861 -0.644,-1.358 -1.52,-1.358 -1.008,0 -1.667,0.707 -1.667,1.786 0,1.078 0.666,1.778 1.688,1.778 0.827,0 1.366,-0.455 1.457,-1.239 z"
               style="fill:#231916;fill-opacity:1;fill-rule:nonzero;stroke:none"
               id="path210" />
          </g>
          <g
             id="g212"
             transform="translate(302.1436,162.6537)">
            <path
               d="m 0,0 c 0.329,0.287 0.603,0.399 1.009,0.399 0.413,0 0.749,-0.139 0.952,-0.391 0.161,-0.196 0.225,-0.435 0.225,-0.82 V -3.074 H 1.541 v 2.157 c 0,0.287 -0.035,0.435 -0.14,0.546 C 1.289,-0.245 1.106,-0.175 0.883,-0.175 0.322,-0.175 0,-0.511 0,-1.078 V -3.074 H -0.644 V 1.598 H 0 Z"
               style="fill:#231916;fill-opacity:1;fill-rule:nonzero;stroke:none"
               id="path214" />
          </g>
          <g
             id="g216"
             transform="translate(305.7549,161.2748)">
            <path
               d="m 0,0 c 0,-0.792 0.357,-1.247 0.98,-1.247 0.61,0 0.974,0.455 0.974,1.226 0,0.812 -0.35,1.26 -0.98,1.26 C 0.357,1.239 0,0.784 0,0 m 2.605,-0.028 c 0,-1.037 -0.665,-1.758 -1.631,-1.758 -0.966,0 -1.625,0.721 -1.625,1.786 0,1.058 0.659,1.778 1.625,1.778 0.987,0 1.631,-0.714 1.631,-1.806"
               style="fill:#231916;fill-opacity:1;fill-rule:nonzero;stroke:none"
               id="path218" />
          </g>
          <g
             id="g220"
             transform="translate(309.6045,161.2748)">
            <path
               d="m 0,0 c 0,-0.792 0.357,-1.247 0.98,-1.247 0.61,0 0.974,0.455 0.974,1.226 0,0.812 -0.35,1.26 -0.98,1.26 C 0.357,1.239 0,0.784 0,0 m 2.605,-0.028 c 0,-1.037 -0.665,-1.758 -1.631,-1.758 -0.966,0 -1.625,0.721 -1.625,1.786 0,1.058 0.659,1.778 1.625,1.778 0.987,0 1.631,-0.714 1.631,-1.806"
               style="fill:#231916;fill-opacity:1;fill-rule:nonzero;stroke:none"
               id="path222" />
          </g>
          <path
             d="m 313.615,159.58 h -0.644 v 4.672 h 0.644 z"
             style="fill:#231916;fill-opacity:1;fill-rule:nonzero;stroke:none"
             id="path224" />
          <g
             id="g226"
             transform="translate(318.3193,163.5297)">
            <path
               d="m 0,0 -0.686,-1.989 h 1.373 z m -0.882,-2.55 -0.476,-1.4 H -2.065 L -0.35,0.722 H 0.364 L 2.088,-3.95 H 1.359 l -0.483,1.4 z"
               style="fill:#231916;fill-opacity:1;fill-rule:nonzero;stroke:none"
               id="path228" />
          </g>
          <g
             id="g230"
             transform="translate(321.5605,162.9623)">
            <path
               d="m 0,0 v -0.385 c 0.336,0.357 0.609,0.476 1.071,0.476 0.4,0 0.729,-0.133 0.917,-0.371 0.161,-0.21 0.225,-0.449 0.225,-0.84 V -3.383 H 1.568 v 2.213 c 0,0.463 -0.21,0.687 -0.651,0.687 -0.553,0 -0.89,-0.323 -0.89,-0.848 V -3.383 H -0.616 V 0 Z"
               style="fill:#231916;fill-opacity:1;fill-rule:nonzero;stroke:none"
               id="path232" />
          </g>
          <g
             id="g234"
             transform="translate(325.333,162.9623)">
            <path
               d="m 0,0 v -0.385 c 0.336,0.357 0.609,0.476 1.071,0.476 0.4,0 0.729,-0.133 0.917,-0.371 0.161,-0.21 0.225,-0.449 0.225,-0.84 V -3.383 H 1.568 v 2.213 c 0,0.463 -0.21,0.687 -0.651,0.687 -0.553,0 -0.89,-0.323 -0.89,-0.848 V -3.383 H -0.616 V 0 Z"
               style="fill:#231916;fill-opacity:1;fill-rule:nonzero;stroke:none"
               id="path236" />
          </g>
          <path
             d="m 329.133,159.58 h -0.644 v 3.383 h 0.644 z m 0,3.921 h -0.644 v 0.75 h 0.644 z"
             style="fill:#231916;fill-opacity:1;fill-rule:nonzero;stroke:none"
             id="path238" />
          <g
             id="g240"
             transform="translate(330.7852,159.5795)">
            <path
               d="m 0,0 -1.162,3.383 h 0.685 L 0.098,1.568 C 0.168,1.352 0.28,0.938 0.364,0.623 0.371,0.672 0.386,0.729 0.399,0.764 L 0.462,1.016 C 0.477,1.071 0.588,1.45 0.616,1.555 L 1.19,3.383 H 1.877 L 0.707,0 Z"
               style="fill:#231916;fill-opacity:1;fill-rule:nonzero;stroke:none"
               id="path242" />
          </g>
          <g
             id="g244"
             transform="translate(335.4268,161.5825)">
            <path
               d="M 0,0 C -0.027,0.616 -0.336,0.96 -0.848,0.96 -1.372,0.96 -1.751,0.567 -1.786,0 Z m -1.793,-0.469 c 0.049,-0.693 0.399,-1.086 0.981,-1.086 0.399,0 0.666,0.19 0.819,0.588 h 0.616 c -0.16,-0.707 -0.7,-1.127 -1.449,-1.127 -0.952,0 -1.612,0.729 -1.612,1.786 0,1.058 0.645,1.779 1.59,1.779 0.673,0 1.163,-0.358 1.387,-1.009 0.084,-0.252 0.127,-0.524 0.134,-0.931 z"
               style="fill:#231916;fill-opacity:1;fill-rule:nonzero;stroke:none"
               id="path246" />
          </g>
          <g
             id="g248"
             transform="translate(337.4775,162.9623)">
            <path
               d="m 0,0 v -0.532 c 0.133,0.196 0.188,0.273 0.28,0.357 0.154,0.161 0.399,0.266 0.602,0.266 0.126,0 0.245,-0.028 0.357,-0.084 v -0.581 c -0.133,0.028 -0.203,0.035 -0.294,0.035 -0.518,0 -0.918,-0.463 -0.918,-1.065 V -3.383 H -0.616 V 0 Z"
               style="fill:#231916;fill-opacity:1;fill-rule:nonzero;stroke:none"
               id="path250" />
          </g>
          <g
             id="g252"
             transform="translate(341.2432,161.9262)">
            <path
               d="m 0,0 c -0.091,0.42 -0.322,0.595 -0.771,0.595 -0.384,0 -0.643,-0.161 -0.643,-0.4 0,-0.168 0.119,-0.279 0.392,-0.349 l 0.784,-0.203 c 0.708,-0.183 1.002,-0.477 1.002,-0.996 0,-0.665 -0.546,-1.085 -1.409,-1.085 -0.917,0 -1.462,0.449 -1.533,1.254 h 0.637 c 0.035,-0.448 0.372,-0.714 0.911,-0.714 0.462,0 0.764,0.203 0.764,0.518 0,0.224 -0.148,0.343 -0.54,0.448 l -0.672,0.168 c -0.358,0.091 -0.574,0.189 -0.715,0.316 -0.153,0.133 -0.252,0.356 -0.252,0.581 0,0.581 0.539,0.994 1.303,0.994 0.483,0 0.883,-0.161 1.121,-0.448 C 0.525,0.497 0.589,0.314 0.616,0 Z"
               style="fill:#231916;fill-opacity:1;fill-rule:nonzero;stroke:none"
               id="path254" />
          </g>
          <g
             id="g256"
             transform="translate(344.8066,161.3168)">
            <path
               d="M 0,0 C -0.119,-0.05 -0.23,-0.084 -0.399,-0.126 L -1.058,-0.28 c -0.391,-0.091 -0.567,-0.252 -0.567,-0.519 0,-0.308 0.253,-0.518 0.631,-0.518 0.546,0 0.994,0.399 0.994,0.882 z m -2.115,0.525 c 0.028,0.399 0.105,0.637 0.273,0.827 0.217,0.245 0.623,0.384 1.1,0.384 0.841,0 1.316,-0.399 1.316,-1.099 v -1.59 c 0,-0.266 0.035,-0.322 0.183,-0.322 0.055,0 0.091,0.007 0.168,0.035 v -0.497 c -0.154,-0.035 -0.287,-0.049 -0.42,-0.049 -0.309,0 -0.448,0.133 -0.505,0.455 -0.343,-0.343 -0.714,-0.497 -1.169,-0.497 -0.659,0 -1.107,0.406 -1.107,1.001 0,0.547 0.337,0.883 1.022,1.022 l 0.75,0.148 c 0.406,0.077 0.49,0.139 0.49,0.35 0,0.329 -0.287,0.533 -0.742,0.533 -0.329,0 -0.589,-0.106 -0.68,-0.288 C -1.484,0.847 -1.499,0.771 -1.513,0.525 Z"
               style="fill:#231916;fill-opacity:1;fill-rule:nonzero;stroke:none"
               id="path258" />
          </g>
          <g
             id="g260"
             transform="translate(346.9697,162.9623)">
            <path
               d="m 0,0 v -0.532 c 0.133,0.196 0.188,0.273 0.28,0.357 0.154,0.161 0.399,0.266 0.602,0.266 0.126,0 0.245,-0.028 0.357,-0.084 v -0.581 c -0.133,0.028 -0.203,0.035 -0.294,0.035 -0.518,0 -0.918,-0.463 -0.918,-1.065 V -3.383 H -0.616 V 0 Z"
               style="fill:#231916;fill-opacity:1;fill-rule:nonzero;stroke:none"
               id="path262" />
          </g>
          <g
             id="g264"
             transform="translate(351.6387,162.9623)">
            <path
               d="m 0,0 -1.491,-3.789 c -0.19,-0.469 -0.442,-0.665 -0.855,-0.665 -0.168,0 -0.308,0.027 -0.518,0.104 v 0.526 c 0.203,-0.077 0.28,-0.091 0.406,-0.091 0.231,0 0.378,0.112 0.47,0.351 L -1.897,-3.299 -3.298,0 h 0.694 l 0.749,-1.933 c 0.112,-0.295 0.132,-0.343 0.251,-0.714 0.078,0.251 0.19,0.602 0.232,0.714 L -0.672,0 Z"
               style="fill:#231916;fill-opacity:1;fill-rule:nonzero;stroke:none"
               id="path266" />
          </g>
          <g
             id="g268"
             transform="translate(357.4697,163.6694)">
            <path
               d="m 0,0 h -2.486 v -1.4 h 2.087 V -1.961 H -2.486 V -4.09 H -3.151 V 0.582 H 0 Z"
               style="fill:#231916;fill-opacity:1;fill-rule:nonzero;stroke:none"
               id="path270" />
          </g>
          <g
             id="g272"
             transform="translate(360.3457,161.5825)">
            <path
               d="M 0,0 C -0.027,0.616 -0.336,0.96 -0.848,0.96 -1.372,0.96 -1.751,0.567 -1.786,0 Z m -1.793,-0.469 c 0.049,-0.693 0.399,-1.086 0.981,-1.086 0.399,0 0.666,0.19 0.819,0.588 h 0.617 c -0.161,-0.707 -0.701,-1.127 -1.45,-1.127 -0.952,0 -1.612,0.729 -1.612,1.786 0,1.058 0.645,1.779 1.59,1.779 0.673,0 1.163,-0.358 1.387,-1.009 0.085,-0.252 0.127,-0.524 0.134,-0.931 z"
               style="fill:#231916;fill-opacity:1;fill-rule:nonzero;stroke:none"
               id="path274" />
          </g>
          <g
             id="g276"
             transform="translate(363.7266,161.9262)">
            <path
               d="m 0,0 c -0.091,0.42 -0.322,0.595 -0.771,0.595 -0.384,0 -0.643,-0.161 -0.643,-0.4 0,-0.168 0.118,-0.279 0.392,-0.349 l 0.784,-0.203 c 0.708,-0.183 1.002,-0.477 1.002,-0.996 0,-0.665 -0.546,-1.085 -1.409,-1.085 -0.917,0 -1.462,0.449 -1.533,1.254 h 0.637 c 0.035,-0.448 0.372,-0.714 0.911,-0.714 0.462,0 0.764,0.203 0.764,0.518 0,0.224 -0.148,0.343 -0.54,0.448 l -0.672,0.168 c -0.358,0.091 -0.574,0.189 -0.715,0.316 -0.153,0.133 -0.252,0.356 -0.252,0.581 0,0.581 0.539,0.994 1.303,0.994 0.483,0 0.883,-0.161 1.121,-0.448 C 0.525,0.497 0.589,0.314 0.616,0 Z"
               style="fill:#231916;fill-opacity:1;fill-rule:nonzero;stroke:none"
               id="path278" />
          </g>
          <g
             id="g280"
             transform="translate(366.5273,162.4506)">
            <path
               d="m 0,0 h -0.609 v -2.122 c 0,-0.195 0.09,-0.308 0.252,-0.308 0.09,0 0.181,0.021 0.357,0.091 v -0.525 c -0.28,-0.063 -0.386,-0.077 -0.54,-0.077 -0.483,0 -0.714,0.259 -0.714,0.819 V 0 h -0.455 v 0.512 h 0.455 v 1.071 h 0.645 V 0.512 H 0 Z"
               style="fill:#231916;fill-opacity:1;fill-rule:nonzero;stroke:none"
               id="path282" />
          </g>
          <path
             d="m 367.73,159.58 h -0.644 v 3.383 h 0.644 z m 0,3.921 h -0.644 v 0.75 h 0.644 z"
             style="fill:#231916;fill-opacity:1;fill-rule:nonzero;stroke:none"
             id="path284" />
          <g
             id="g286"
             transform="translate(369.3828,159.5795)">
            <path
               d="m 0,0 -1.162,3.383 h 0.685 L 0.098,1.568 C 0.168,1.352 0.28,0.938 0.364,0.623 0.371,0.672 0.386,0.729 0.399,0.764 L 0.462,1.016 C 0.477,1.071 0.588,1.45 0.616,1.555 L 1.19,3.383 H 1.877 L 0.707,0 Z"
               style="fill:#231916;fill-opacity:1;fill-rule:nonzero;stroke:none"
               id="path288" />
          </g>
          <g
             id="g290"
             transform="translate(373.8633,161.3168)">
            <path
               d="M 0,0 C -0.119,-0.05 -0.23,-0.084 -0.399,-0.126 L -1.058,-0.28 c -0.391,-0.091 -0.567,-0.252 -0.567,-0.519 0,-0.308 0.253,-0.518 0.631,-0.518 0.546,0 0.994,0.399 0.994,0.882 z m -2.115,0.525 c 0.028,0.399 0.105,0.637 0.273,0.827 0.217,0.245 0.623,0.384 1.1,0.384 0.841,0 1.316,-0.399 1.316,-1.099 v -1.59 c 0,-0.266 0.035,-0.322 0.183,-0.322 0.055,0 0.091,0.007 0.168,0.035 v -0.497 c -0.154,-0.035 -0.287,-0.049 -0.42,-0.049 -0.309,0 -0.448,0.133 -0.505,0.455 -0.343,-0.343 -0.714,-0.497 -1.169,-0.497 -0.659,0 -1.107,0.406 -1.107,1.001 0,0.547 0.337,0.883 1.022,1.022 l 0.75,0.148 c 0.406,0.077 0.49,0.139 0.49,0.35 0,0.329 -0.287,0.533 -0.742,0.533 -0.329,0 -0.589,-0.106 -0.68,-0.288 C -1.484,0.847 -1.499,0.771 -1.513,0.525 Z"
               style="fill:#231916;fill-opacity:1;fill-rule:nonzero;stroke:none"
               id="path292" />
          </g>
          <path
             d="m 376.054,159.58 h -0.644 v 4.672 h 0.644 z"
             style="fill:#231916;fill-opacity:1;fill-rule:nonzero;stroke:none"
             id="path294" />
          <g
             id="g296"
             transform="translate(382.082,159.5795)">
            <path
               d="m 0,0 h -3.061 c -0.021,0.841 0.414,1.436 1.59,2.178 0.694,0.456 0.875,0.686 0.875,1.128 0,0.49 -0.349,0.834 -0.846,0.834 -0.386,0 -0.68,-0.197 -0.799,-0.526 C -2.283,3.48 -2.297,3.354 -2.297,3.012 h -0.624 v 0.175 c 0,0.476 0.099,0.798 0.329,1.057 0.267,0.316 0.673,0.477 1.17,0.477 0.883,0 1.478,-0.568 1.478,-1.408 0,-0.407 -0.14,-0.75 -0.413,-1.037 C -0.546,2.08 -0.638,2.01 -1.324,1.568 -1.807,1.247 -2.199,0.848 -2.283,0.581 H 0 Z"
               style="fill:#231916;fill-opacity:1;fill-rule:nonzero;stroke:none"
               id="path298" />
          </g>
          <g
             id="g300"
             transform="translate(383.7471,163.1791)">
            <path
               d="m 0,0 c -0.134,-0.314 -0.196,-0.707 -0.196,-1.281 0,-0.574 0.062,-0.974 0.196,-1.289 0.146,-0.329 0.434,-0.539 0.763,-0.539 0.322,0 0.616,0.21 0.757,0.539 0.132,0.315 0.196,0.708 0.196,1.26 C 1.716,-0.707 1.659,-0.308 1.52,0 1.372,0.337 1.078,0.54 0.756,0.54 0.434,0.54 0.146,0.337 0,0 m 2.038,0.351 c 0.231,-0.428 0.329,-0.925 0.329,-1.667 0,-0.672 -0.105,-1.191 -0.329,-1.604 -0.267,-0.483 -0.743,-0.77 -1.282,-0.77 -0.532,0 -1.009,0.287 -1.275,0.77 -0.224,0.427 -0.329,0.924 -0.329,1.639 0,0.707 0.105,1.225 0.329,1.632 0.274,0.483 0.743,0.77 1.275,0.77 0.547,0 1.015,-0.28 1.282,-0.77"
               style="fill:#231916;fill-opacity:1;fill-rule:nonzero;stroke:none"
               id="path302" />
          </g>
          <g
             id="g304"
             transform="translate(389.9219,159.5795)">
            <path
               d="m 0,0 h -3.061 c -0.021,0.841 0.414,1.436 1.59,2.178 0.694,0.456 0.875,0.686 0.875,1.128 0,0.49 -0.349,0.834 -0.846,0.834 -0.386,0 -0.68,-0.197 -0.799,-0.526 C -2.283,3.48 -2.297,3.354 -2.297,3.012 h -0.624 v 0.175 c 0,0.476 0.099,0.798 0.329,1.057 0.267,0.316 0.673,0.477 1.17,0.477 0.883,0 1.478,-0.568 1.478,-1.408 0,-0.407 -0.14,-0.75 -0.413,-1.037 C -0.546,2.08 -0.638,2.01 -1.324,1.568 -1.807,1.247 -2.199,0.848 -2.283,0.581 H 0 Z"
               style="fill:#231916;fill-opacity:1;fill-rule:nonzero;stroke:none"
               id="path306" />
          </g>
          <g
             id="g308"
             transform="translate(391.5869,163.1791)">
            <path
               d="m 0,0 c -0.134,-0.314 -0.196,-0.707 -0.196,-1.281 0,-0.574 0.062,-0.974 0.196,-1.289 0.146,-0.329 0.434,-0.539 0.763,-0.539 0.322,0 0.616,0.21 0.757,0.539 0.132,0.315 0.196,0.708 0.196,1.26 C 1.716,-0.707 1.659,-0.308 1.52,0 1.372,0.337 1.078,0.54 0.756,0.54 0.434,0.54 0.146,0.337 0,0 m 2.038,0.351 c 0.231,-0.428 0.329,-0.925 0.329,-1.667 0,-0.672 -0.105,-1.191 -0.329,-1.604 -0.267,-0.483 -0.743,-0.77 -1.282,-0.77 -0.532,0 -1.009,0.287 -1.275,0.77 -0.224,0.427 -0.329,0.924 -0.329,1.639 0,0.707 0.105,1.225 0.329,1.632 0.274,0.483 0.743,0.77 1.275,0.77 0.547,0 1.015,-0.28 1.282,-0.77"
               style="fill:#231916;fill-opacity:1;fill-rule:nonzero;stroke:none"
               id="path310" />
          </g>
        </g>
      </g>
    </g>
  </g>
</svg>
